<?xml version="1.0" encoding="utf-8"?>
<!-- Generator: Adobe Illustrator 26.0.1, SVG Export Plug-In . SVG Version: 6.00 Build 0)  -->
<svg version="1.1" xmlns="http://www.w3.org/2000/svg" xmlns:xlink="http://www.w3.org/1999/xlink" x="0px" y="0px"
	 viewBox="0 0 700.51 431.98" style="enable-background:new 0 0 700.51 431.98;" xml:space="preserve">
<style type="text/css">
	.st0{clip-path:url(#SVGID_00000170984555184277477690000015345410936824102078_);}
	.st1{fill:#DB5C4D;}
	.st2{clip-path:url(#SVGID_00000037675268554256356830000001835494489914176949_);}
	.st3{fill-rule:evenodd;clip-rule:evenodd;fill:url(#SVGID_00000078006962635738707750000013373355997896991362_);}
	.st4{fill-rule:evenodd;clip-rule:evenodd;fill:url(#SVGID_00000027570013028718066940000000749552314265467824_);}
	.st5{fill-rule:evenodd;clip-rule:evenodd;fill:url(#SVGID_00000053541280044223717430000007535630304600116919_);}
	.st6{fill-rule:evenodd;clip-rule:evenodd;fill:#D95C4E;}
	.st7{fill-rule:evenodd;clip-rule:evenodd;fill:url(#SVGID_00000154420228545371122660000003689089870040043193_);}
	.st8{fill-rule:evenodd;clip-rule:evenodd;fill:url(#SVGID_00000048489501633006022050000012731359409118350991_);}
	.st9{fill-rule:evenodd;clip-rule:evenodd;fill:url(#SVGID_00000072245097609998835510000013057433566937563534_);}
	.st10{fill-rule:evenodd;clip-rule:evenodd;fill:url(#SVGID_00000132798589642156215150000015021967693176709808_);}
	.st11{fill-rule:evenodd;clip-rule:evenodd;fill:url(#SVGID_00000134929345598349476980000005382115159638652071_);}
	.st12{fill-rule:evenodd;clip-rule:evenodd;fill:url(#SVGID_00000143581394744442860870000015216082652591851654_);}
	.st13{opacity:0.2;fill-rule:evenodd;clip-rule:evenodd;fill:url(#SVGID_00000105415010034480886480000016693353871103443332_);}
	.st14{opacity:0.2;fill-rule:evenodd;clip-rule:evenodd;fill:url(#SVGID_00000080913864687975454790000016369935998069067929_);}
	.st15{opacity:0.41;fill-rule:evenodd;clip-rule:evenodd;fill:url(#SVGID_00000011000836995126246040000009020532583825026692_);}
	.st16{opacity:0.5;}
	
		.st17{clip-path:url(#SVGID_00000067927042424390160210000007112910550436915585_);fill-rule:evenodd;clip-rule:evenodd;fill:#FFFFFF;}
	
		.st18{clip-path:url(#SVGID_00000067927042424390160210000007112910550436915585_);fill-rule:evenodd;clip-rule:evenodd;fill:#FEF9F9;}
	
		.st19{clip-path:url(#SVGID_00000067927042424390160210000007112910550436915585_);fill-rule:evenodd;clip-rule:evenodd;fill:#FCF4F3;}
	
		.st20{clip-path:url(#SVGID_00000067927042424390160210000007112910550436915585_);fill-rule:evenodd;clip-rule:evenodd;fill:#FBEEEC;}
	
		.st21{clip-path:url(#SVGID_00000067927042424390160210000007112910550436915585_);fill-rule:evenodd;clip-rule:evenodd;fill:#FAE9E7;}
	
		.st22{clip-path:url(#SVGID_00000067927042424390160210000007112910550436915585_);fill-rule:evenodd;clip-rule:evenodd;fill:#F9E4E1;}
	
		.st23{clip-path:url(#SVGID_00000067927042424390160210000007112910550436915585_);fill-rule:evenodd;clip-rule:evenodd;fill:#F7DEDB;}
	
		.st24{clip-path:url(#SVGID_00000067927042424390160210000007112910550436915585_);fill-rule:evenodd;clip-rule:evenodd;fill:#F6D9D6;}
	
		.st25{clip-path:url(#SVGID_00000067927042424390160210000007112910550436915585_);fill-rule:evenodd;clip-rule:evenodd;fill:#F5D3D0;}
	
		.st26{clip-path:url(#SVGID_00000067927042424390160210000007112910550436915585_);fill-rule:evenodd;clip-rule:evenodd;fill:#F4CFCB;}
	
		.st27{clip-path:url(#SVGID_00000067927042424390160210000007112910550436915585_);fill-rule:evenodd;clip-rule:evenodd;fill:#F3CAC6;}
	
		.st28{clip-path:url(#SVGID_00000067927042424390160210000007112910550436915585_);fill-rule:evenodd;clip-rule:evenodd;fill:#F2C6C1;}
	
		.st29{clip-path:url(#SVGID_00000067927042424390160210000007112910550436915585_);fill-rule:evenodd;clip-rule:evenodd;fill:#F0C0BB;}
	
		.st30{clip-path:url(#SVGID_00000067927042424390160210000007112910550436915585_);fill-rule:evenodd;clip-rule:evenodd;fill:#EFBBB6;}
	
		.st31{clip-path:url(#SVGID_00000067927042424390160210000007112910550436915585_);fill-rule:evenodd;clip-rule:evenodd;fill:#EEB7B1;}
	
		.st32{clip-path:url(#SVGID_00000067927042424390160210000007112910550436915585_);fill-rule:evenodd;clip-rule:evenodd;fill:#EDB2AC;}
	
		.st33{clip-path:url(#SVGID_00000067927042424390160210000007112910550436915585_);fill-rule:evenodd;clip-rule:evenodd;fill:#ECAEA7;}
	
		.st34{clip-path:url(#SVGID_00000067927042424390160210000007112910550436915585_);fill-rule:evenodd;clip-rule:evenodd;fill:#EBAAA3;}
	
		.st35{clip-path:url(#SVGID_00000067927042424390160210000007112910550436915585_);fill-rule:evenodd;clip-rule:evenodd;fill:#EAA69E;}
	
		.st36{clip-path:url(#SVGID_00000067927042424390160210000007112910550436915585_);fill-rule:evenodd;clip-rule:evenodd;fill:#E9A199;}
	
		.st37{clip-path:url(#SVGID_00000067927042424390160210000007112910550436915585_);fill-rule:evenodd;clip-rule:evenodd;fill:#E89E95;}
	
		.st38{clip-path:url(#SVGID_00000067927042424390160210000007112910550436915585_);fill-rule:evenodd;clip-rule:evenodd;fill:#E79990;}
	
		.st39{clip-path:url(#SVGID_00000067927042424390160210000007112910550436915585_);fill-rule:evenodd;clip-rule:evenodd;fill:#E6948B;}
	
		.st40{clip-path:url(#SVGID_00000067927042424390160210000007112910550436915585_);fill-rule:evenodd;clip-rule:evenodd;fill:#E59188;}
	
		.st41{clip-path:url(#SVGID_00000067927042424390160210000007112910550436915585_);fill-rule:evenodd;clip-rule:evenodd;fill:#E58E84;}
	
		.st42{clip-path:url(#SVGID_00000067927042424390160210000007112910550436915585_);fill-rule:evenodd;clip-rule:evenodd;fill:#E3897F;}
	
		.st43{clip-path:url(#SVGID_00000067927042424390160210000007112910550436915585_);fill-rule:evenodd;clip-rule:evenodd;fill:#E3867B;}
	
		.st44{clip-path:url(#SVGID_00000067927042424390160210000007112910550436915585_);fill-rule:evenodd;clip-rule:evenodd;fill:#E28277;}
	
		.st45{clip-path:url(#SVGID_00000067927042424390160210000007112910550436915585_);fill-rule:evenodd;clip-rule:evenodd;fill:#E17F74;}
	
		.st46{clip-path:url(#SVGID_00000067927042424390160210000007112910550436915585_);fill-rule:evenodd;clip-rule:evenodd;fill:#E07A6F;}
	
		.st47{clip-path:url(#SVGID_00000067927042424390160210000007112910550436915585_);fill-rule:evenodd;clip-rule:evenodd;fill:#DF776B;}
	
		.st48{clip-path:url(#SVGID_00000067927042424390160210000007112910550436915585_);fill-rule:evenodd;clip-rule:evenodd;fill:#DE7367;}
	
		.st49{clip-path:url(#SVGID_00000067927042424390160210000007112910550436915585_);fill-rule:evenodd;clip-rule:evenodd;fill:#DE7064;}
	
		.st50{clip-path:url(#SVGID_00000067927042424390160210000007112910550436915585_);fill-rule:evenodd;clip-rule:evenodd;fill:#DD6E61;}
	
		.st51{clip-path:url(#SVGID_00000067927042424390160210000007112910550436915585_);fill-rule:evenodd;clip-rule:evenodd;fill:#DC6A5D;}
	
		.st52{clip-path:url(#SVGID_00000067927042424390160210000007112910550436915585_);fill-rule:evenodd;clip-rule:evenodd;fill:#DB675A;}
	
		.st53{clip-path:url(#SVGID_00000067927042424390160210000007112910550436915585_);fill-rule:evenodd;clip-rule:evenodd;fill:#DB6356;}
	
		.st54{clip-path:url(#SVGID_00000067927042424390160210000007112910550436915585_);fill-rule:evenodd;clip-rule:evenodd;fill:#DA6052;}
	
		.st55{clip-path:url(#SVGID_00000067927042424390160210000007112910550436915585_);fill-rule:evenodd;clip-rule:evenodd;fill:#D95E50;}
	
		.st56{clip-path:url(#SVGID_00000067927042424390160210000007112910550436915585_);fill-rule:evenodd;clip-rule:evenodd;fill:#D65B4D;}
	
		.st57{clip-path:url(#SVGID_00000067927042424390160210000007112910550436915585_);fill-rule:evenodd;clip-rule:evenodd;fill:#D2594B;}
	
		.st58{clip-path:url(#SVGID_00000067927042424390160210000007112910550436915585_);fill-rule:evenodd;clip-rule:evenodd;fill:#CC5749;}
	
		.st59{clip-path:url(#SVGID_00000067927042424390160210000007112910550436915585_);fill-rule:evenodd;clip-rule:evenodd;fill:#C85548;}
	
		.st60{clip-path:url(#SVGID_00000067927042424390160210000007112910550436915585_);fill-rule:evenodd;clip-rule:evenodd;fill:#C35246;}
	
		.st61{clip-path:url(#SVGID_00000067927042424390160210000007112910550436915585_);fill-rule:evenodd;clip-rule:evenodd;fill:#BF5145;}
	
		.st62{clip-path:url(#SVGID_00000067927042424390160210000007112910550436915585_);fill-rule:evenodd;clip-rule:evenodd;fill:#BB4F43;}
	
		.st63{clip-path:url(#SVGID_00000067927042424390160210000007112910550436915585_);fill-rule:evenodd;clip-rule:evenodd;fill:#B54D41;}
	
		.st64{clip-path:url(#SVGID_00000067927042424390160210000007112910550436915585_);fill-rule:evenodd;clip-rule:evenodd;fill:#B14B40;}
	
		.st65{clip-path:url(#SVGID_00000067927042424390160210000007112910550436915585_);fill-rule:evenodd;clip-rule:evenodd;fill:#AD493E;}
	
		.st66{clip-path:url(#SVGID_00000067927042424390160210000007112910550436915585_);fill-rule:evenodd;clip-rule:evenodd;fill:#A9483D;}
	
		.st67{clip-path:url(#SVGID_00000067927042424390160210000007112910550436915585_);fill-rule:evenodd;clip-rule:evenodd;fill:#A6463C;}
	
		.st68{clip-path:url(#SVGID_00000067927042424390160210000007112910550436915585_);fill-rule:evenodd;clip-rule:evenodd;fill:#A2453A;}
	
		.st69{clip-path:url(#SVGID_00000067927042424390160210000007112910550436915585_);fill-rule:evenodd;clip-rule:evenodd;fill:#9E4339;}
	
		.st70{clip-path:url(#SVGID_00000067927042424390160210000007112910550436915585_);fill-rule:evenodd;clip-rule:evenodd;fill:#9A4137;}
	
		.st71{clip-path:url(#SVGID_00000067927042424390160210000007112910550436915585_);fill-rule:evenodd;clip-rule:evenodd;fill:#964036;}
	
		.st72{clip-path:url(#SVGID_00000067927042424390160210000007112910550436915585_);fill-rule:evenodd;clip-rule:evenodd;fill:#923E35;}
	
		.st73{clip-path:url(#SVGID_00000067927042424390160210000007112910550436915585_);fill-rule:evenodd;clip-rule:evenodd;fill:#8F3C33;}
	
		.st74{clip-path:url(#SVGID_00000067927042424390160210000007112910550436915585_);fill-rule:evenodd;clip-rule:evenodd;fill:#8B3B32;}
	
		.st75{clip-path:url(#SVGID_00000067927042424390160210000007112910550436915585_);fill-rule:evenodd;clip-rule:evenodd;fill:#873930;}
	
		.st76{clip-path:url(#SVGID_00000067927042424390160210000007112910550436915585_);fill-rule:evenodd;clip-rule:evenodd;fill:#83382F;}
	
		.st77{clip-path:url(#SVGID_00000067927042424390160210000007112910550436915585_);fill-rule:evenodd;clip-rule:evenodd;fill:#81372E;}
	
		.st78{clip-path:url(#SVGID_00000067927042424390160210000007112910550436915585_);fill-rule:evenodd;clip-rule:evenodd;fill:#7D352D;}
	
		.st79{clip-path:url(#SVGID_00000067927042424390160210000007112910550436915585_);fill-rule:evenodd;clip-rule:evenodd;fill:#79332C;}
	
		.st80{clip-path:url(#SVGID_00000067927042424390160210000007112910550436915585_);fill-rule:evenodd;clip-rule:evenodd;fill:#77332B;}
	
		.st81{clip-path:url(#SVGID_00000067927042424390160210000007112910550436915585_);fill-rule:evenodd;clip-rule:evenodd;fill:#74312A;}
	
		.st82{clip-path:url(#SVGID_00000067927042424390160210000007112910550436915585_);fill-rule:evenodd;clip-rule:evenodd;fill:#723029;}
	
		.st83{clip-path:url(#SVGID_00000067927042424390160210000007112910550436915585_);fill-rule:evenodd;clip-rule:evenodd;fill:#6E2F27;}
	
		.st84{clip-path:url(#SVGID_00000067927042424390160210000007112910550436915585_);fill-rule:evenodd;clip-rule:evenodd;fill:#6C2E27;}
	
		.st85{clip-path:url(#SVGID_00000067927042424390160210000007112910550436915585_);fill-rule:evenodd;clip-rule:evenodd;fill:#682C25;}
	
		.st86{clip-path:url(#SVGID_00000067927042424390160210000007112910550436915585_);fill-rule:evenodd;clip-rule:evenodd;fill:#662B25;}
	
		.st87{clip-path:url(#SVGID_00000067927042424390160210000007112910550436915585_);fill-rule:evenodd;clip-rule:evenodd;fill:#622A23;}
	
		.st88{clip-path:url(#SVGID_00000067927042424390160210000007112910550436915585_);fill-rule:evenodd;clip-rule:evenodd;fill:#602923;}
	
		.st89{clip-path:url(#SVGID_00000067927042424390160210000007112910550436915585_);fill-rule:evenodd;clip-rule:evenodd;fill:#5E2822;}
	
		.st90{clip-path:url(#SVGID_00000067927042424390160210000007112910550436915585_);fill-rule:evenodd;clip-rule:evenodd;fill:#5B2621;}
	
		.st91{clip-path:url(#SVGID_00000067927042424390160210000007112910550436915585_);fill-rule:evenodd;clip-rule:evenodd;fill:#592620;}
	
		.st92{clip-path:url(#SVGID_00000067927042424390160210000007112910550436915585_);fill-rule:evenodd;clip-rule:evenodd;fill:#57251F;}
	
		.st93{clip-path:url(#SVGID_00000067927042424390160210000007112910550436915585_);fill-rule:evenodd;clip-rule:evenodd;fill:#53231E;}
	
		.st94{clip-path:url(#SVGID_00000067927042424390160210000007112910550436915585_);fill-rule:evenodd;clip-rule:evenodd;fill:#51221D;}
	
		.st95{clip-path:url(#SVGID_00000067927042424390160210000007112910550436915585_);fill-rule:evenodd;clip-rule:evenodd;fill:#4F211C;}
	
		.st96{clip-path:url(#SVGID_00000067927042424390160210000007112910550436915585_);fill-rule:evenodd;clip-rule:evenodd;fill:#4D211C;}
	
		.st97{clip-path:url(#SVGID_00000067927042424390160210000007112910550436915585_);fill-rule:evenodd;clip-rule:evenodd;fill:#4B201B;}
	
		.st98{clip-path:url(#SVGID_00000067927042424390160210000007112910550436915585_);fill-rule:evenodd;clip-rule:evenodd;fill:#491F1A;}
	
		.st99{clip-path:url(#SVGID_00000067927042424390160210000007112910550436915585_);fill-rule:evenodd;clip-rule:evenodd;fill:#471E1A;}
	
		.st100{clip-path:url(#SVGID_00000067927042424390160210000007112910550436915585_);fill-rule:evenodd;clip-rule:evenodd;fill:#451D19;}
	
		.st101{clip-path:url(#SVGID_00000067927042424390160210000007112910550436915585_);fill-rule:evenodd;clip-rule:evenodd;fill:#431D18;}
	
		.st102{clip-path:url(#SVGID_00000067927042424390160210000007112910550436915585_);fill-rule:evenodd;clip-rule:evenodd;fill:#411C18;}
	
		.st103{clip-path:url(#SVGID_00000067927042424390160210000007112910550436915585_);fill-rule:evenodd;clip-rule:evenodd;fill:#212121;}
	
		.st104{clip-path:url(#SVGID_00000067927042424390160210000007112910550436915585_);fill-rule:evenodd;clip-rule:evenodd;fill:#202020;}
	
		.st105{clip-path:url(#SVGID_00000067927042424390160210000007112910550436915585_);fill-rule:evenodd;clip-rule:evenodd;fill:#1F1F1F;}
	
		.st106{clip-path:url(#SVGID_00000067927042424390160210000007112910550436915585_);fill-rule:evenodd;clip-rule:evenodd;fill:#1E1E1E;}
	
		.st107{clip-path:url(#SVGID_00000067927042424390160210000007112910550436915585_);fill-rule:evenodd;clip-rule:evenodd;fill:#1D1D1D;}
	
		.st108{clip-path:url(#SVGID_00000067927042424390160210000007112910550436915585_);fill-rule:evenodd;clip-rule:evenodd;fill:#1C1C1C;}
	
		.st109{clip-path:url(#SVGID_00000067927042424390160210000007112910550436915585_);fill-rule:evenodd;clip-rule:evenodd;fill:#1B1B1B;}
	
		.st110{clip-path:url(#SVGID_00000067927042424390160210000007112910550436915585_);fill-rule:evenodd;clip-rule:evenodd;fill:#1A1A1A;}
	
		.st111{clip-path:url(#SVGID_00000067927042424390160210000007112910550436915585_);fill-rule:evenodd;clip-rule:evenodd;fill:#191919;}
	
		.st112{clip-path:url(#SVGID_00000067927042424390160210000007112910550436915585_);fill-rule:evenodd;clip-rule:evenodd;fill:#181818;}
	
		.st113{clip-path:url(#SVGID_00000067927042424390160210000007112910550436915585_);fill-rule:evenodd;clip-rule:evenodd;fill:#171717;}
	
		.st114{clip-path:url(#SVGID_00000067927042424390160210000007112910550436915585_);fill-rule:evenodd;clip-rule:evenodd;fill:#161616;}
	
		.st115{clip-path:url(#SVGID_00000067927042424390160210000007112910550436915585_);fill-rule:evenodd;clip-rule:evenodd;fill:#151515;}
	
		.st116{clip-path:url(#SVGID_00000067927042424390160210000007112910550436915585_);fill-rule:evenodd;clip-rule:evenodd;fill:#141414;}
	
		.st117{clip-path:url(#SVGID_00000067927042424390160210000007112910550436915585_);fill-rule:evenodd;clip-rule:evenodd;fill:#131313;}
	
		.st118{clip-path:url(#SVGID_00000067927042424390160210000007112910550436915585_);fill-rule:evenodd;clip-rule:evenodd;fill:#121212;}
	
		.st119{clip-path:url(#SVGID_00000067927042424390160210000007112910550436915585_);fill-rule:evenodd;clip-rule:evenodd;fill:#111111;}
	
		.st120{clip-path:url(#SVGID_00000067927042424390160210000007112910550436915585_);fill-rule:evenodd;clip-rule:evenodd;fill:#101010;}
	
		.st121{clip-path:url(#SVGID_00000067927042424390160210000007112910550436915585_);fill-rule:evenodd;clip-rule:evenodd;fill:#0F0F0F;}
	
		.st122{clip-path:url(#SVGID_00000067927042424390160210000007112910550436915585_);fill-rule:evenodd;clip-rule:evenodd;fill:#0E0E0E;}
	
		.st123{clip-path:url(#SVGID_00000067927042424390160210000007112910550436915585_);fill-rule:evenodd;clip-rule:evenodd;fill:#0D0D0D;}
	
		.st124{clip-path:url(#SVGID_00000067927042424390160210000007112910550436915585_);fill-rule:evenodd;clip-rule:evenodd;fill:#0C0C0C;}
	
		.st125{clip-path:url(#SVGID_00000067927042424390160210000007112910550436915585_);fill-rule:evenodd;clip-rule:evenodd;fill:#0B0B0B;}
	
		.st126{clip-path:url(#SVGID_00000067927042424390160210000007112910550436915585_);fill-rule:evenodd;clip-rule:evenodd;fill:#0A0A0A;}
	
		.st127{clip-path:url(#SVGID_00000067927042424390160210000007112910550436915585_);fill-rule:evenodd;clip-rule:evenodd;fill:#090909;}
	
		.st128{clip-path:url(#SVGID_00000067927042424390160210000007112910550436915585_);fill-rule:evenodd;clip-rule:evenodd;fill:#080808;}
	
		.st129{clip-path:url(#SVGID_00000067927042424390160210000007112910550436915585_);fill-rule:evenodd;clip-rule:evenodd;fill:#070707;}
	
		.st130{clip-path:url(#SVGID_00000067927042424390160210000007112910550436915585_);fill-rule:evenodd;clip-rule:evenodd;fill:#060606;}
	
		.st131{clip-path:url(#SVGID_00000067927042424390160210000007112910550436915585_);fill-rule:evenodd;clip-rule:evenodd;fill:#050505;}
	
		.st132{clip-path:url(#SVGID_00000067927042424390160210000007112910550436915585_);fill-rule:evenodd;clip-rule:evenodd;fill:#040404;}
	
		.st133{clip-path:url(#SVGID_00000067927042424390160210000007112910550436915585_);fill-rule:evenodd;clip-rule:evenodd;fill:#030303;}
	
		.st134{clip-path:url(#SVGID_00000067927042424390160210000007112910550436915585_);fill-rule:evenodd;clip-rule:evenodd;fill:#020202;}
	
		.st135{clip-path:url(#SVGID_00000067927042424390160210000007112910550436915585_);fill-rule:evenodd;clip-rule:evenodd;fill:#010101;}
	.st136{clip-path:url(#SVGID_00000067927042424390160210000007112910550436915585_);fill-rule:evenodd;clip-rule:evenodd;}
	.st137{fill-rule:evenodd;clip-rule:evenodd;fill:url(#SVGID_00000017512623785868262720000004862180025569994136_);}
	.st138{fill-rule:evenodd;clip-rule:evenodd;fill:url(#SVGID_00000086684753277213178560000005695170053993584790_);}
	.st139{fill-rule:evenodd;clip-rule:evenodd;fill:url(#SVGID_00000148632593678254693930000017853129571621134245_);}
	.st140{fill-rule:evenodd;clip-rule:evenodd;fill:url(#SVGID_00000003783594589845406830000001553093335091022996_);}
	
		.st141{clip-path:url(#SVGID_00000155116154621754241810000002001272793893242269_);fill-rule:evenodd;clip-rule:evenodd;fill:#FFFFFF;}
	
		.st142{clip-path:url(#SVGID_00000155116154621754241810000002001272793893242269_);fill-rule:evenodd;clip-rule:evenodd;fill:#FEF9F9;}
	
		.st143{clip-path:url(#SVGID_00000155116154621754241810000002001272793893242269_);fill-rule:evenodd;clip-rule:evenodd;fill:#FCF4F3;}
	
		.st144{clip-path:url(#SVGID_00000155116154621754241810000002001272793893242269_);fill-rule:evenodd;clip-rule:evenodd;fill:#FBEEEC;}
	
		.st145{clip-path:url(#SVGID_00000155116154621754241810000002001272793893242269_);fill-rule:evenodd;clip-rule:evenodd;fill:#FAE9E7;}
	
		.st146{clip-path:url(#SVGID_00000155116154621754241810000002001272793893242269_);fill-rule:evenodd;clip-rule:evenodd;fill:#F9E4E1;}
	
		.st147{clip-path:url(#SVGID_00000155116154621754241810000002001272793893242269_);fill-rule:evenodd;clip-rule:evenodd;fill:#F7DEDB;}
	
		.st148{clip-path:url(#SVGID_00000155116154621754241810000002001272793893242269_);fill-rule:evenodd;clip-rule:evenodd;fill:#F6D9D6;}
	
		.st149{clip-path:url(#SVGID_00000155116154621754241810000002001272793893242269_);fill-rule:evenodd;clip-rule:evenodd;fill:#F5D3D0;}
	
		.st150{clip-path:url(#SVGID_00000155116154621754241810000002001272793893242269_);fill-rule:evenodd;clip-rule:evenodd;fill:#F4CFCB;}
	
		.st151{clip-path:url(#SVGID_00000155116154621754241810000002001272793893242269_);fill-rule:evenodd;clip-rule:evenodd;fill:#F3CAC6;}
	
		.st152{clip-path:url(#SVGID_00000155116154621754241810000002001272793893242269_);fill-rule:evenodd;clip-rule:evenodd;fill:#F2C6C1;}
	
		.st153{clip-path:url(#SVGID_00000155116154621754241810000002001272793893242269_);fill-rule:evenodd;clip-rule:evenodd;fill:#F0C0BB;}
	
		.st154{clip-path:url(#SVGID_00000155116154621754241810000002001272793893242269_);fill-rule:evenodd;clip-rule:evenodd;fill:#EFBBB6;}
	
		.st155{clip-path:url(#SVGID_00000155116154621754241810000002001272793893242269_);fill-rule:evenodd;clip-rule:evenodd;fill:#EEB7B1;}
	
		.st156{clip-path:url(#SVGID_00000155116154621754241810000002001272793893242269_);fill-rule:evenodd;clip-rule:evenodd;fill:#EDB2AC;}
	
		.st157{clip-path:url(#SVGID_00000155116154621754241810000002001272793893242269_);fill-rule:evenodd;clip-rule:evenodd;fill:#ECAEA7;}
	
		.st158{clip-path:url(#SVGID_00000155116154621754241810000002001272793893242269_);fill-rule:evenodd;clip-rule:evenodd;fill:#EBAAA3;}
	
		.st159{clip-path:url(#SVGID_00000155116154621754241810000002001272793893242269_);fill-rule:evenodd;clip-rule:evenodd;fill:#EAA69E;}
	
		.st160{clip-path:url(#SVGID_00000155116154621754241810000002001272793893242269_);fill-rule:evenodd;clip-rule:evenodd;fill:#E9A199;}
	
		.st161{clip-path:url(#SVGID_00000155116154621754241810000002001272793893242269_);fill-rule:evenodd;clip-rule:evenodd;fill:#E89E95;}
	
		.st162{clip-path:url(#SVGID_00000155116154621754241810000002001272793893242269_);fill-rule:evenodd;clip-rule:evenodd;fill:#E79990;}
	
		.st163{clip-path:url(#SVGID_00000155116154621754241810000002001272793893242269_);fill-rule:evenodd;clip-rule:evenodd;fill:#E6948B;}
	
		.st164{clip-path:url(#SVGID_00000155116154621754241810000002001272793893242269_);fill-rule:evenodd;clip-rule:evenodd;fill:#E59188;}
	
		.st165{clip-path:url(#SVGID_00000155116154621754241810000002001272793893242269_);fill-rule:evenodd;clip-rule:evenodd;fill:#E58E84;}
	
		.st166{clip-path:url(#SVGID_00000155116154621754241810000002001272793893242269_);fill-rule:evenodd;clip-rule:evenodd;fill:#E3897F;}
	
		.st167{clip-path:url(#SVGID_00000155116154621754241810000002001272793893242269_);fill-rule:evenodd;clip-rule:evenodd;fill:#E3867B;}
	
		.st168{clip-path:url(#SVGID_00000155116154621754241810000002001272793893242269_);fill-rule:evenodd;clip-rule:evenodd;fill:#E28277;}
	
		.st169{clip-path:url(#SVGID_00000155116154621754241810000002001272793893242269_);fill-rule:evenodd;clip-rule:evenodd;fill:#E17F74;}
	
		.st170{clip-path:url(#SVGID_00000155116154621754241810000002001272793893242269_);fill-rule:evenodd;clip-rule:evenodd;fill:#E07A6F;}
	
		.st171{clip-path:url(#SVGID_00000155116154621754241810000002001272793893242269_);fill-rule:evenodd;clip-rule:evenodd;fill:#DF776B;}
	
		.st172{clip-path:url(#SVGID_00000155116154621754241810000002001272793893242269_);fill-rule:evenodd;clip-rule:evenodd;fill:#DE7367;}
	
		.st173{clip-path:url(#SVGID_00000155116154621754241810000002001272793893242269_);fill-rule:evenodd;clip-rule:evenodd;fill:#DE7064;}
	
		.st174{clip-path:url(#SVGID_00000155116154621754241810000002001272793893242269_);fill-rule:evenodd;clip-rule:evenodd;fill:#DD6E61;}
	
		.st175{clip-path:url(#SVGID_00000155116154621754241810000002001272793893242269_);fill-rule:evenodd;clip-rule:evenodd;fill:#DC6A5D;}
	
		.st176{clip-path:url(#SVGID_00000155116154621754241810000002001272793893242269_);fill-rule:evenodd;clip-rule:evenodd;fill:#DB675A;}
	
		.st177{clip-path:url(#SVGID_00000155116154621754241810000002001272793893242269_);fill-rule:evenodd;clip-rule:evenodd;fill:#DB6356;}
	
		.st178{clip-path:url(#SVGID_00000155116154621754241810000002001272793893242269_);fill-rule:evenodd;clip-rule:evenodd;fill:#DA6052;}
	
		.st179{clip-path:url(#SVGID_00000155116154621754241810000002001272793893242269_);fill-rule:evenodd;clip-rule:evenodd;fill:#D95E50;}
	
		.st180{clip-path:url(#SVGID_00000155116154621754241810000002001272793893242269_);fill-rule:evenodd;clip-rule:evenodd;fill:#D65B4D;}
	
		.st181{clip-path:url(#SVGID_00000155116154621754241810000002001272793893242269_);fill-rule:evenodd;clip-rule:evenodd;fill:#D2594B;}
	
		.st182{clip-path:url(#SVGID_00000155116154621754241810000002001272793893242269_);fill-rule:evenodd;clip-rule:evenodd;fill:#CC5749;}
	
		.st183{clip-path:url(#SVGID_00000155116154621754241810000002001272793893242269_);fill-rule:evenodd;clip-rule:evenodd;fill:#C85548;}
	
		.st184{clip-path:url(#SVGID_00000155116154621754241810000002001272793893242269_);fill-rule:evenodd;clip-rule:evenodd;fill:#C35246;}
	
		.st185{clip-path:url(#SVGID_00000155116154621754241810000002001272793893242269_);fill-rule:evenodd;clip-rule:evenodd;fill:#BF5145;}
	
		.st186{clip-path:url(#SVGID_00000155116154621754241810000002001272793893242269_);fill-rule:evenodd;clip-rule:evenodd;fill:#BB4F43;}
	
		.st187{clip-path:url(#SVGID_00000155116154621754241810000002001272793893242269_);fill-rule:evenodd;clip-rule:evenodd;fill:#B54D41;}
	
		.st188{clip-path:url(#SVGID_00000155116154621754241810000002001272793893242269_);fill-rule:evenodd;clip-rule:evenodd;fill:#B14B40;}
	
		.st189{clip-path:url(#SVGID_00000155116154621754241810000002001272793893242269_);fill-rule:evenodd;clip-rule:evenodd;fill:#AD493E;}
	
		.st190{clip-path:url(#SVGID_00000155116154621754241810000002001272793893242269_);fill-rule:evenodd;clip-rule:evenodd;fill:#A9483D;}
	
		.st191{clip-path:url(#SVGID_00000155116154621754241810000002001272793893242269_);fill-rule:evenodd;clip-rule:evenodd;fill:#A6463C;}
	
		.st192{clip-path:url(#SVGID_00000155116154621754241810000002001272793893242269_);fill-rule:evenodd;clip-rule:evenodd;fill:#A2453A;}
	
		.st193{clip-path:url(#SVGID_00000155116154621754241810000002001272793893242269_);fill-rule:evenodd;clip-rule:evenodd;fill:#9E4339;}
	
		.st194{clip-path:url(#SVGID_00000155116154621754241810000002001272793893242269_);fill-rule:evenodd;clip-rule:evenodd;fill:#9A4137;}
	
		.st195{clip-path:url(#SVGID_00000155116154621754241810000002001272793893242269_);fill-rule:evenodd;clip-rule:evenodd;fill:#964036;}
	
		.st196{clip-path:url(#SVGID_00000155116154621754241810000002001272793893242269_);fill-rule:evenodd;clip-rule:evenodd;fill:#923E35;}
	
		.st197{clip-path:url(#SVGID_00000155116154621754241810000002001272793893242269_);fill-rule:evenodd;clip-rule:evenodd;fill:#8F3C33;}
	
		.st198{clip-path:url(#SVGID_00000155116154621754241810000002001272793893242269_);fill-rule:evenodd;clip-rule:evenodd;fill:#8B3B32;}
	
		.st199{clip-path:url(#SVGID_00000155116154621754241810000002001272793893242269_);fill-rule:evenodd;clip-rule:evenodd;fill:#873930;}
	
		.st200{clip-path:url(#SVGID_00000155116154621754241810000002001272793893242269_);fill-rule:evenodd;clip-rule:evenodd;fill:#83382F;}
	
		.st201{clip-path:url(#SVGID_00000155116154621754241810000002001272793893242269_);fill-rule:evenodd;clip-rule:evenodd;fill:#81372E;}
	
		.st202{clip-path:url(#SVGID_00000155116154621754241810000002001272793893242269_);fill-rule:evenodd;clip-rule:evenodd;fill:#7D352D;}
	
		.st203{clip-path:url(#SVGID_00000155116154621754241810000002001272793893242269_);fill-rule:evenodd;clip-rule:evenodd;fill:#79332C;}
	
		.st204{clip-path:url(#SVGID_00000155116154621754241810000002001272793893242269_);fill-rule:evenodd;clip-rule:evenodd;fill:#77332B;}
	
		.st205{clip-path:url(#SVGID_00000155116154621754241810000002001272793893242269_);fill-rule:evenodd;clip-rule:evenodd;fill:#74312A;}
	
		.st206{clip-path:url(#SVGID_00000155116154621754241810000002001272793893242269_);fill-rule:evenodd;clip-rule:evenodd;fill:#723029;}
	
		.st207{clip-path:url(#SVGID_00000155116154621754241810000002001272793893242269_);fill-rule:evenodd;clip-rule:evenodd;fill:#6E2F27;}
	
		.st208{clip-path:url(#SVGID_00000155116154621754241810000002001272793893242269_);fill-rule:evenodd;clip-rule:evenodd;fill:#6C2E27;}
	
		.st209{clip-path:url(#SVGID_00000155116154621754241810000002001272793893242269_);fill-rule:evenodd;clip-rule:evenodd;fill:#682C25;}
	
		.st210{clip-path:url(#SVGID_00000155116154621754241810000002001272793893242269_);fill-rule:evenodd;clip-rule:evenodd;fill:#662B25;}
	
		.st211{clip-path:url(#SVGID_00000155116154621754241810000002001272793893242269_);fill-rule:evenodd;clip-rule:evenodd;fill:#622A23;}
	
		.st212{clip-path:url(#SVGID_00000155116154621754241810000002001272793893242269_);fill-rule:evenodd;clip-rule:evenodd;fill:#602923;}
	
		.st213{clip-path:url(#SVGID_00000155116154621754241810000002001272793893242269_);fill-rule:evenodd;clip-rule:evenodd;fill:#5E2822;}
	
		.st214{clip-path:url(#SVGID_00000155116154621754241810000002001272793893242269_);fill-rule:evenodd;clip-rule:evenodd;fill:#5B2621;}
	
		.st215{clip-path:url(#SVGID_00000155116154621754241810000002001272793893242269_);fill-rule:evenodd;clip-rule:evenodd;fill:#592620;}
	
		.st216{clip-path:url(#SVGID_00000155116154621754241810000002001272793893242269_);fill-rule:evenodd;clip-rule:evenodd;fill:#57251F;}
	
		.st217{clip-path:url(#SVGID_00000155116154621754241810000002001272793893242269_);fill-rule:evenodd;clip-rule:evenodd;fill:#53231E;}
	
		.st218{clip-path:url(#SVGID_00000155116154621754241810000002001272793893242269_);fill-rule:evenodd;clip-rule:evenodd;fill:#51221D;}
	
		.st219{clip-path:url(#SVGID_00000155116154621754241810000002001272793893242269_);fill-rule:evenodd;clip-rule:evenodd;fill:#4F211C;}
	
		.st220{clip-path:url(#SVGID_00000155116154621754241810000002001272793893242269_);fill-rule:evenodd;clip-rule:evenodd;fill:#4D211C;}
	
		.st221{clip-path:url(#SVGID_00000155116154621754241810000002001272793893242269_);fill-rule:evenodd;clip-rule:evenodd;fill:#4B201B;}
	
		.st222{clip-path:url(#SVGID_00000155116154621754241810000002001272793893242269_);fill-rule:evenodd;clip-rule:evenodd;fill:#491F1A;}
	
		.st223{clip-path:url(#SVGID_00000155116154621754241810000002001272793893242269_);fill-rule:evenodd;clip-rule:evenodd;fill:#471E1A;}
	
		.st224{clip-path:url(#SVGID_00000155116154621754241810000002001272793893242269_);fill-rule:evenodd;clip-rule:evenodd;fill:#451D19;}
	
		.st225{clip-path:url(#SVGID_00000155116154621754241810000002001272793893242269_);fill-rule:evenodd;clip-rule:evenodd;fill:#431D18;}
	
		.st226{clip-path:url(#SVGID_00000155116154621754241810000002001272793893242269_);fill-rule:evenodd;clip-rule:evenodd;fill:#411C18;}
	
		.st227{clip-path:url(#SVGID_00000155116154621754241810000002001272793893242269_);fill-rule:evenodd;clip-rule:evenodd;fill:#212121;}
	
		.st228{clip-path:url(#SVGID_00000155116154621754241810000002001272793893242269_);fill-rule:evenodd;clip-rule:evenodd;fill:#202020;}
	
		.st229{clip-path:url(#SVGID_00000155116154621754241810000002001272793893242269_);fill-rule:evenodd;clip-rule:evenodd;fill:#1F1F1F;}
	
		.st230{clip-path:url(#SVGID_00000155116154621754241810000002001272793893242269_);fill-rule:evenodd;clip-rule:evenodd;fill:#1E1E1E;}
	
		.st231{clip-path:url(#SVGID_00000155116154621754241810000002001272793893242269_);fill-rule:evenodd;clip-rule:evenodd;fill:#1D1D1D;}
	
		.st232{clip-path:url(#SVGID_00000155116154621754241810000002001272793893242269_);fill-rule:evenodd;clip-rule:evenodd;fill:#1C1C1C;}
	
		.st233{clip-path:url(#SVGID_00000155116154621754241810000002001272793893242269_);fill-rule:evenodd;clip-rule:evenodd;fill:#1B1B1B;}
	
		.st234{clip-path:url(#SVGID_00000155116154621754241810000002001272793893242269_);fill-rule:evenodd;clip-rule:evenodd;fill:#1A1A1A;}
	
		.st235{clip-path:url(#SVGID_00000155116154621754241810000002001272793893242269_);fill-rule:evenodd;clip-rule:evenodd;fill:#191919;}
	
		.st236{clip-path:url(#SVGID_00000155116154621754241810000002001272793893242269_);fill-rule:evenodd;clip-rule:evenodd;fill:#181818;}
	
		.st237{clip-path:url(#SVGID_00000155116154621754241810000002001272793893242269_);fill-rule:evenodd;clip-rule:evenodd;fill:#171717;}
	
		.st238{clip-path:url(#SVGID_00000155116154621754241810000002001272793893242269_);fill-rule:evenodd;clip-rule:evenodd;fill:#161616;}
	
		.st239{clip-path:url(#SVGID_00000155116154621754241810000002001272793893242269_);fill-rule:evenodd;clip-rule:evenodd;fill:#151515;}
	
		.st240{clip-path:url(#SVGID_00000155116154621754241810000002001272793893242269_);fill-rule:evenodd;clip-rule:evenodd;fill:#141414;}
	
		.st241{clip-path:url(#SVGID_00000155116154621754241810000002001272793893242269_);fill-rule:evenodd;clip-rule:evenodd;fill:#131313;}
	
		.st242{clip-path:url(#SVGID_00000155116154621754241810000002001272793893242269_);fill-rule:evenodd;clip-rule:evenodd;fill:#121212;}
	
		.st243{clip-path:url(#SVGID_00000155116154621754241810000002001272793893242269_);fill-rule:evenodd;clip-rule:evenodd;fill:#111111;}
	
		.st244{clip-path:url(#SVGID_00000155116154621754241810000002001272793893242269_);fill-rule:evenodd;clip-rule:evenodd;fill:#101010;}
	
		.st245{clip-path:url(#SVGID_00000155116154621754241810000002001272793893242269_);fill-rule:evenodd;clip-rule:evenodd;fill:#0F0F0F;}
	
		.st246{clip-path:url(#SVGID_00000155116154621754241810000002001272793893242269_);fill-rule:evenodd;clip-rule:evenodd;fill:#0E0E0E;}
	
		.st247{clip-path:url(#SVGID_00000155116154621754241810000002001272793893242269_);fill-rule:evenodd;clip-rule:evenodd;fill:#0D0D0D;}
	
		.st248{clip-path:url(#SVGID_00000155116154621754241810000002001272793893242269_);fill-rule:evenodd;clip-rule:evenodd;fill:#0C0C0C;}
	
		.st249{clip-path:url(#SVGID_00000155116154621754241810000002001272793893242269_);fill-rule:evenodd;clip-rule:evenodd;fill:#0B0B0B;}
	
		.st250{clip-path:url(#SVGID_00000155116154621754241810000002001272793893242269_);fill-rule:evenodd;clip-rule:evenodd;fill:#0A0A0A;}
	
		.st251{clip-path:url(#SVGID_00000155116154621754241810000002001272793893242269_);fill-rule:evenodd;clip-rule:evenodd;fill:#090909;}
	
		.st252{clip-path:url(#SVGID_00000155116154621754241810000002001272793893242269_);fill-rule:evenodd;clip-rule:evenodd;fill:#080808;}
	
		.st253{clip-path:url(#SVGID_00000155116154621754241810000002001272793893242269_);fill-rule:evenodd;clip-rule:evenodd;fill:#070707;}
	
		.st254{clip-path:url(#SVGID_00000155116154621754241810000002001272793893242269_);fill-rule:evenodd;clip-rule:evenodd;fill:#060606;}
	
		.st255{clip-path:url(#SVGID_00000155116154621754241810000002001272793893242269_);fill-rule:evenodd;clip-rule:evenodd;fill:#050505;}
	
		.st256{clip-path:url(#SVGID_00000155116154621754241810000002001272793893242269_);fill-rule:evenodd;clip-rule:evenodd;fill:#040404;}
	
		.st257{clip-path:url(#SVGID_00000155116154621754241810000002001272793893242269_);fill-rule:evenodd;clip-rule:evenodd;fill:#030303;}
	
		.st258{clip-path:url(#SVGID_00000155116154621754241810000002001272793893242269_);fill-rule:evenodd;clip-rule:evenodd;fill:#020202;}
	
		.st259{clip-path:url(#SVGID_00000155116154621754241810000002001272793893242269_);fill-rule:evenodd;clip-rule:evenodd;fill:#010101;}
	.st260{clip-path:url(#SVGID_00000155116154621754241810000002001272793893242269_);fill-rule:evenodd;clip-rule:evenodd;}
	.st261{fill-rule:evenodd;clip-rule:evenodd;fill:url(#SVGID_00000015318172515574930100000001737835385028869544_);}
	.st262{fill:url(#SVGID_00000132782136283673140680000002867323893949250206_);}
	.st263{fill:url(#SVGID_00000060720488400050799750000004321633241648577700_);}
	.st264{fill:url(#SVGID_00000005973942761054567000000008445073284104224151_);}
	.st265{fill:url(#SVGID_00000111907558738313499720000004857679716384526727_);}
	.st266{fill:url(#SVGID_00000029724039175003746520000004350961529210126257_);}
	.st267{fill:url(#SVGID_00000115483043170253031740000011852428919013015952_);}
	.st268{fill:url(#SVGID_00000131340428344098139280000015273608774135152794_);}
	.st269{fill:#FDEAD9;}
	.st270{fill:url(#SVGID_00000146498231384516807390000003176753367142085816_);}
	.st271{fill:url(#SVGID_00000099656643372763108940000005381351672042258359_);}
	.st272{fill:url(#SVGID_00000131359300518833343390000018035235130638387884_);}
	.st273{opacity:0.9;fill:url(#SVGID_00000162346948574407132760000017310430919272026031_);}
	.st274{fill:url(#SVGID_00000010270218774892896310000015358689619913636516_);}
	.st275{fill:url(#SVGID_00000001654438974252615750000013145966736510582442_);}
	.st276{fill:url(#SVGID_00000062882713595001187670000018323984024121919139_);}
	.st277{fill:url(#SVGID_00000083787278561525177230000007923419799633602972_);}
	.st278{fill:url(#SVGID_00000112595674133296723200000009191168814502235287_);}
	.st279{fill:url(#SVGID_00000106827945213462752710000017823281630304795283_);}
	.st280{fill:url(#SVGID_00000178920268054339090730000000364001699064747706_);}
	.st281{fill:url(#SVGID_00000040558193650783517160000004471021313120152758_);}
	.st282{fill:#B04940;}
	.st283{fill:url(#SVGID_00000011747177755415522540000013971521973892276900_);}
	.st284{opacity:0.9;fill:url(#SVGID_00000182492956335003186540000004566748777717093507_);}
	.st285{fill:url(#SVGID_00000016784722432095838560000016059331545375562936_);}
	.st286{fill:url(#SVGID_00000108989880385335632790000011863148604616048829_);}
	.st287{fill:url(#SVGID_00000116951749709919972680000012451105633892851606_);}
	.st288{fill:url(#SVGID_00000114065095224067243030000007681174189968642738_);}
	.st289{fill:url(#SVGID_00000176757050918598018540000010387274079376705195_);}
	.st290{fill:url(#SVGID_00000080905172292304352520000005198059635261099708_);}
	.st291{fill:url(#SVGID_00000062194024634413309160000002564528948596973194_);}
	.st292{fill:url(#SVGID_00000176722974329762459480000009544738439348521390_);}
	.st293{fill:url(#SVGID_00000158028480363686992800000010469517420951029946_);}
	.st294{fill:#DD6964;}
	.st295{fill:url(#SVGID_00000008862463214959414910000013033462690504424890_);}
	.st296{fill:url(#SVGID_00000117668615222465245940000003216946974690317452_);}
	.st297{fill:url(#SVGID_00000150813313670695875530000000142233862550419595_);}
	.st298{fill:url(#SVGID_00000057149605095624394550000000554190670787381413_);}
	.st299{fill:url(#SVGID_00000055689165669601424400000012609599721850864533_);}
	.st300{fill:url(#SVGID_00000038414222853288262300000008790960094764879016_);}
	.st301{fill:url(#SVGID_00000154401167131868123160000013219914965235413893_);}
	.st302{fill:url(#SVGID_00000089575557874610410610000013067385598351407521_);}
	.st303{fill:url(#SVGID_00000026126897285952813400000008746370084637071535_);}
	.st304{fill:url(#SVGID_00000042695823173790004630000015873098713359033768_);}
	.st305{fill:url(#SVGID_00000008137558431502376340000015825644831627092910_);}
	.st306{fill:url(#SVGID_00000135676576674752225220000010325336194792681618_);}
	.st307{fill:url(#SVGID_00000057869406959177058620000009330407235023687829_);}
	.st308{fill:url(#SVGID_00000167394533599611705780000002430665022675066266_);}
	.st309{fill:url(#SVGID_00000068642896953496621910000014925914377864066177_);}
	.st310{fill:url(#SVGID_00000094583486440026481670000015440846409206751662_);}
	.st311{fill:url(#SVGID_00000096046929401359523150000009219775456132869508_);}
	.st312{fill:url(#SVGID_00000137819914949890072770000011085188293215642515_);}
	.st313{fill:url(#SVGID_00000037676201164800889600000018157771291279894440_);}
	.st314{fill:url(#SVGID_00000142873531823662916070000018389870681271397520_);}
	.st315{fill:url(#SVGID_00000116930149340891699280000008794402800352545207_);}
	.st316{fill:url(#SVGID_00000036962012464147133760000012132007060068500881_);}
	.st317{fill:url(#SVGID_00000023981483321455592100000011949446514866342024_);}
	.st318{fill:url(#SVGID_00000110453958201746995500000015465145303255871617_);}
	.st319{fill:url(#SVGID_00000147180854993878929730000014031980300476467850_);}
	.st320{fill:url(#SVGID_00000095331485610373742510000006822877943337432250_);}
	.st321{opacity:0.9;fill:url(#SVGID_00000095305029188659673750000007245485908170350779_);}
	.st322{fill:url(#SVGID_00000040561812776475664580000013868100629881774744_);}
	.st323{fill:url(#SVGID_00000029030860993113768410000002767542377369975985_);}
	.st324{fill:url(#SVGID_00000072246832615493605900000002796102788522828935_);}
	.st325{fill:url(#SVGID_00000082331384185046361540000010291210275324837817_);}
	.st326{fill:url(#SVGID_00000116227300949409882030000002639386685702421645_);}
	.st327{opacity:0.9;fill:url(#SVGID_00000052807277913152379030000013160292932135956900_);}
	.st328{fill:url(#SVGID_00000012466500848766727770000004995128069658029744_);}
	.st329{fill:url(#SVGID_00000079465989345577717000000007071641126160453813_);}
	.st330{fill:url(#SVGID_00000038392661399545420560000000253870337099507363_);}
	.st331{fill:url(#SVGID_00000029762308034637023620000003305189587710545050_);}
	.st332{fill:url(#SVGID_00000182492770562260605000000001350982445782549643_);}
	.st333{opacity:0.9;fill:url(#SVGID_00000180360108125735845520000017001701530342316962_);}
	.st334{fill:url(#SVGID_00000111876468539457850660000016793064119244259715_);}
	.st335{fill:url(#SVGID_00000163788549079064935520000006741280686973398955_);}
	.st336{fill:url(#SVGID_00000000224240855663170500000011367005338376371630_);}
	.st337{fill:url(#SVGID_00000147200064354302280560000010740514584528751794_);}
	.st338{fill:url(#SVGID_00000032642789999452584110000006829905582236853682_);}
	.st339{fill:url(#SVGID_00000140695545680910065540000017491684809180335761_);}
	.st340{fill:url(#SVGID_00000119834047401896578160000010298789377134539410_);}
	.st341{fill:url(#SVGID_00000090974991778959711910000011119314683423085968_);}
	.st342{fill:url(#SVGID_00000157309844302303793230000010718237898684222860_);}
	.st343{fill:url(#SVGID_00000030469140379357547310000008674266165345293202_);}
	.st344{fill:url(#SVGID_00000173843440715379048980000005082834296742403458_);}
	.st345{fill:url(#SVGID_00000155863685329723256050000007304126017336934049_);}
	.st346{fill:url(#SVGID_00000074440071918640527930000010268974687279534234_);}
	.st347{fill:url(#SVGID_00000070841550763094614310000010323680391728178876_);}
	.st348{fill:url(#SVGID_00000015357081414376563390000016783490661245454720_);}
	.st349{fill:url(#SVGID_00000020377501366708996680000012118365473613898383_);}
	.st350{fill:url(#SVGID_00000045613723743916502130000001269621297236429441_);}
	.st351{fill:url(#SVGID_00000166635235458578437390000011812496509880719760_);}
	.st352{fill:url(#SVGID_00000008856705280563315350000004083780167888585120_);}
	.st353{fill:url(#SVGID_00000109001482962407711690000006284140114333105068_);}
	.st354{fill:url(#SVGID_00000039110112523112562050000002310070525592221087_);}
	.st355{fill:url(#SVGID_00000064356159120509795170000012910515939758712476_);}
	.st356{fill:url(#SVGID_00000002383149501137503960000009920415027158097850_);}
	.st357{fill:url(#SVGID_00000098921279202422121310000016958520324112991361_);}
	.st358{fill:url(#SVGID_00000028295238700095281690000010225169210631014583_);}
	.st359{fill:url(#SVGID_00000152974603919426817340000001333771051301067933_);}
	.st360{fill:url(#SVGID_00000047763706360506112540000003143824705847751824_);}
	.st361{fill:url(#SVGID_00000032626387932209932190000005587735251991630750_);}
	.st362{fill:url(#SVGID_00000114775497735590651280000005769629933768681102_);}
	.st363{fill:url(#SVGID_00000061443139864325600300000011290605867609270689_);}
	.st364{fill:url(#SVGID_00000090277810702264794910000016447437545633795474_);}
	.st365{fill:url(#SVGID_00000112611548134334969920000010049946986122639512_);}
	.st366{fill:url(#SVGID_00000036955627805530045470000006558922206363785099_);}
	.st367{opacity:0.9;fill:url(#SVGID_00000116222585966936005480000016987376115798248609_);}
	.st368{fill:url(#SVGID_00000116199497834258111960000003517822763238309288_);}
	.st369{fill:url(#SVGID_00000054948285853633544440000018193864284564541856_);}
	.st370{fill:url(#SVGID_00000108268578169744247230000004675920334562279074_);}
	.st371{fill:url(#SVGID_00000152224576021372297810000008105064040385870002_);}
	.st372{fill:url(#SVGID_00000027584302839205110820000013917635623951355787_);}
	.st373{fill:url(#SVGID_00000090270354327708156560000006992009195368238735_);}
	.st374{fill:url(#SVGID_00000116945966376259169860000010129125175569509558_);}
	.st375{fill:url(#SVGID_00000044874649790165568210000007956084310878248862_);}
	.st376{fill:url(#SVGID_00000121973981150411517940000012364234770672992437_);}
	.st377{fill:url(#SVGID_00000111171451843911496930000013251731735729781376_);}
	.st378{fill:url(#SVGID_00000077302575423023263150000011884011456258301366_);}
	.st379{fill:url(#SVGID_00000169550756400173910600000018372766130837832369_);}
	.st380{fill:url(#SVGID_00000163769006163737433070000007501894319633444278_);}
	.st381{fill:url(#SVGID_00000096761103597487113190000005872089717522192302_);}
	.st382{fill:url(#SVGID_00000112602665356598809550000006380430032387119257_);}
	.st383{fill:url(#SVGID_00000071561148850527375240000018032821521768251815_);}
	.st384{fill:url(#SVGID_00000067212660002472070710000012747558902559546261_);}
	.st385{fill:url(#SVGID_00000005255004909724298100000014310425039868317608_);}
	.st386{fill:url(#SVGID_00000039831623605830089760000016272677411315205511_);}
	.st387{fill:url(#SVGID_00000016065742211544194400000002181826658310530946_);}
	.st388{fill:url(#SVGID_00000003802128377738931790000014489179920197010616_);}
	.st389{fill:url(#SVGID_00000076569792252008274970000004988555961625736841_);}
	.st390{fill:url(#SVGID_00000167388296954803356320000016246444358766979760_);}
	.st391{fill:url(#SVGID_00000132789919319727335750000009158556876381556363_);}
	.st392{fill:url(#SVGID_00000062906734309995316820000001712449323094459565_);}
	.st393{fill:url(#SVGID_00000125582375358812061800000014341699150450698635_);}
	.st394{opacity:0.9;fill:url(#SVGID_00000108278645699629678530000011374656387760988340_);}
	.st395{fill:url(#SVGID_00000107590662735436480130000016408874731688710281_);}
	.st396{fill:url(#SVGID_00000154406352903580130550000009509941281440488853_);}
	.st397{fill:url(#SVGID_00000157275091366877477810000018406768160839095472_);}
	.st398{fill:url(#SVGID_00000070821463870365891480000011637352576510584472_);}
	.st399{fill:url(#SVGID_00000118391138615440150030000000611608757590265472_);}
	.st400{fill:url(#SVGID_00000063632222299416003170000011526779662717296304_);}
	.st401{fill:url(#SVGID_00000145044991896301946660000005263300964844560032_);}
	.st402{fill:url(#SVGID_00000180347252696923932550000013805176815010907299_);}
	.st403{fill:url(#SVGID_00000153680850948174687730000013057453035261027976_);}
	.st404{fill:url(#SVGID_00000163033593135304178810000016813178871280709807_);}
	.st405{fill:url(#SVGID_00000144309635721391160170000015249420961303138974_);}
	.st406{fill:url(#SVGID_00000159438666655379831610000013922287711057728925_);}
	.st407{fill:url(#SVGID_00000103965439023870946270000012688066674515510440_);}
	.st408{fill:url(#SVGID_00000150807703266430454890000013515831262437612475_);}
	.st409{fill:url(#SVGID_00000059279259591986982180000004291554144684126631_);}
	.st410{fill:url(#SVGID_00000122720783751018700540000000737400491790236600_);}
	.st411{fill:url(#SVGID_00000128457105060314481710000014947656541973010837_);}
	.st412{opacity:0.9;fill:url(#SVGID_00000137822101251993824970000006427553657427958714_);}
	.st413{fill:url(#SVGID_00000021799738731786437130000003188870838332949945_);}
	.st414{opacity:0.9;fill:url(#SVGID_00000145015944012546925050000008649969959198165145_);}
	.st415{opacity:0.9;fill:url(#SVGID_00000036930091849413397710000000170605505349883541_);}
	.st416{opacity:0.9;fill:url(#SVGID_00000013893160200259333640000008836853106559313029_);}
	.st417{fill:url(#SVGID_00000056426046852883686320000004973204497692821414_);}
	.st418{fill:url(#SVGID_00000152986425197269247720000010191712500714423456_);}
	.st419{fill:url(#SVGID_00000127034873220285659070000003612958181058477994_);}
	.st420{fill:url(#SVGID_00000004513096578704778140000006666373834371725502_);}
	.st421{fill:url(#SVGID_00000042717342461247565690000004774970101857962429_);}
	.st422{fill:url(#SVGID_00000080176259444776716680000006179673954905145508_);}
	.st423{fill:url(#SVGID_00000123423963539352014030000009064043130390746026_);}
	.st424{fill:url(#SVGID_00000051375164446899944080000007743285270180118716_);}
	.st425{opacity:0.9;fill:url(#SVGID_00000007403988077620595880000008202769568259863969_);}
	.st426{fill:url(#SVGID_00000064343112200551000130000015296115350715006113_);}
	.st427{fill:url(#SVGID_00000059295752365078789820000010417365988858300582_);}
	.st428{fill:url(#SVGID_00000149340437169020696910000010178297140646569387_);}
	.st429{fill:url(#SVGID_00000124850353231874632220000016100214817595677596_);}
	.st430{fill:url(#SVGID_00000021826403529730174740000004597190061245453492_);}
	.st431{fill:url(#SVGID_00000093890105136115393280000016423266054415006646_);}
	.st432{fill:url(#SVGID_00000183250059041241807180000003941245459826421684_);}
	.st433{fill:url(#SVGID_00000101816082598509166660000001695909972310773148_);}
	.st434{opacity:0.9;fill:url(#SVGID_00000034780340612920425560000007806100299191476372_);}
	.st435{opacity:0.4;fill:url(#SVGID_00000122713981416784586400000007353777760781465748_);}
	.st436{opacity:0.4;fill:url(#SVGID_00000140699454341562590640000018010599166257951673_);}
	.st437{opacity:0.4;fill:url(#SVGID_00000028309305206380909810000010228552931062023319_);}
	.st438{opacity:0.4;fill:url(#SVGID_00000036958231306066223410000016153420110658763661_);}
	.st439{opacity:0.4;fill:url(#SVGID_00000143584443668743389270000017586702406915446657_);}
	.st440{opacity:0.4;fill:url(#SVGID_00000078738777058775977430000016648956877878678402_);}
	.st441{opacity:0.4;fill:url(#SVGID_00000055678248378872681750000005494548208210706594_);}
	.st442{opacity:0.4;fill:url(#SVGID_00000125579168584984339270000003428317800159916705_);}
	.st443{opacity:0.4;fill:url(#SVGID_00000101791989696198454300000011314828291444041857_);}
	.st444{opacity:0.4;fill:url(#SVGID_00000164491105689278925700000016318196784309346209_);}
	.st445{opacity:0.4;fill:url(#SVGID_00000108300537719366219650000000994929833520248225_);}
	.st446{opacity:0.4;fill:url(#SVGID_00000101077244463498655410000013294135345894258337_);}
	.st447{opacity:0.4;fill:url(#SVGID_00000003097827786610475720000007524418968212497585_);}
	.st448{opacity:0.4;fill:url(#SVGID_00000070840638969873228510000002645461955458099860_);}
	.st449{opacity:0.4;fill:url(#SVGID_00000160888986371231246290000005998376402380430208_);}
	.st450{opacity:0.4;fill:url(#SVGID_00000142141247380135905220000015084234593699010233_);}
	.st451{opacity:0.4;fill:url(#SVGID_00000094599676533412597020000000991825544698820519_);}
	.st452{opacity:0.4;fill:url(#SVGID_00000070803251470281422130000009843241582376232892_);}
	.st453{opacity:0.4;fill:url(#SVGID_00000146457200925564798950000005152625610124558762_);}
	.st454{opacity:0.4;fill:url(#SVGID_00000110433475124944883950000011624073673453449914_);}
	.st455{opacity:0.4;fill:url(#SVGID_00000031182635762798327080000010941154312234591392_);}
	.st456{opacity:0.4;fill:url(#SVGID_00000128482964465527790850000006769435350324328344_);}
	.st457{opacity:0.4;fill:url(#SVGID_00000050623579635885196690000000844309173091490980_);}
	.st458{opacity:0.4;fill:url(#SVGID_00000050661511667950918470000013262108562338347160_);}
	.st459{opacity:0.4;fill:url(#SVGID_00000003810175963757865750000014813859050430113213_);}
	.st460{opacity:0.4;fill:url(#SVGID_00000077301118025259297990000009703534663703335094_);}
	.st461{opacity:0.4;fill:url(#SVGID_00000049908218963280173870000010751441056786164918_);}
	.st462{opacity:0.4;fill:url(#SVGID_00000140714032364684237810000016082932673459902607_);}
	.st463{opacity:0.8;}
	.st464{opacity:0;fill:#FFFFFF;}
	.st465{opacity:0.05;fill:#FFFFFF;}
	.st466{opacity:0.1;fill:#FFFFFF;}
	.st467{opacity:0.15;fill:#FFFFFF;}
	.st468{opacity:0.2;fill:#FFFFFF;}
	.st469{opacity:0.25;fill:#FFFFFF;}
	.st470{opacity:0.3;fill:#FFFFFF;}
	.st471{opacity:0.1;}
	.st472{fill:#D25400;}
	.st473{fill:#E27124;}
	.st474{fill:#C3C5C5;}
	.st475{fill:#C8D2DB;}
	.st476{fill:#C02F1C;}
	.st477{fill:#781E11;}
	.st478{enable-background:new    ;}
	.st479{fill:#E7E8E9;}
	.st480{fill:#E6E7EC;}
</style>
<g id="Backgrounds">
</g>
<g id="Graphic_Elements">
	<g>
		<g class="st463">
			<path class="st464" d="M354.63,145.22c0,15.55-12.61,28.19-28.19,28.19c-15.55,0-28.18-12.64-28.18-28.19
				c0-15.58,12.63-28.18,28.18-28.18C342.02,117.03,354.63,129.64,354.63,145.22z"/>
			<path class="st465" d="M350.23,145.52c0,13.12-10.64,23.79-23.79,23.79c-13.12,0-23.79-10.67-23.79-23.79
				c0-13.15,10.66-23.79,23.79-23.79C339.59,121.73,350.23,132.37,350.23,145.52z"/>
			<path class="st466" d="M345.83,145.82c0,10.7-8.67,19.39-19.39,19.39c-10.7,0-19.39-8.69-19.39-19.39
				c0-10.72,8.69-19.39,19.39-19.39C337.16,126.43,345.83,135.1,345.83,145.82z"/>
			<path class="st467" d="M341.43,146.12c0,8.27-6.7,14.99-14.99,14.99c-8.27,0-14.99-6.72-14.99-14.99
				c0-8.29,6.72-14.99,14.99-14.99C334.73,131.12,341.43,137.83,341.43,146.12z"/>
			<path class="st468" d="M337.03,146.42c0,5.85-4.73,10.6-10.59,10.6c-5.84,0-10.6-4.75-10.6-10.6c0-5.86,4.75-10.59,10.6-10.59
				C332.3,135.82,337.03,140.56,337.03,146.42z"/>
			<path class="st469" d="M332.63,146.72c0,3.42-2.77,6.2-6.19,6.2c-3.41,0-6.2-2.78-6.2-6.2c0-3.43,2.78-6.2,6.2-6.2
				C329.87,140.52,332.63,143.29,332.63,146.72z"/>
			<path class="st470" d="M328.24,147.01c0,0.99-0.8,1.8-1.79,1.8c-0.99,0-1.8-0.81-1.8-1.8c0-1,0.81-1.8,1.8-1.8
				C327.44,145.22,328.24,146.02,328.24,147.01z"/>
		</g>
		<g class="st471">
			<polygon points="254.52,282.4 345.06,333.23 441.62,279.35 346.32,225.47 			"/>
		</g>
		<g>
			<path class="st472" d="M438.11,173.01c-0.01-0.34-0.03-0.68-0.05-1.01c-0.01-0.15-0.03-0.31-0.04-0.46
				c-0.01-0.07-0.01-0.13-0.01-0.2c-0.01-0.12-0.02-0.23-0.03-0.35c-0.04-0.33-0.07-0.67-0.11-1.02c-0.04-0.35-0.1-0.7-0.15-1.05
				c0-0.01,0-0.02-0.01-0.03l0-0.01c-0.05-0.33-0.11-0.67-0.17-1.02c-0.07-0.35-0.14-0.72-0.22-1.09c-0.03-0.13-0.06-0.26-0.09-0.39
				c-0.01-0.07-0.03-0.14-0.05-0.21c-0.04-0.16-0.07-0.32-0.12-0.49c-0.1-0.37-0.19-0.74-0.29-1.11c-0.07-0.26-0.15-0.52-0.23-0.78
				c-0.02-0.06-0.03-0.12-0.05-0.18c-0.01-0.05-0.03-0.09-0.04-0.14c-0.1-0.36-0.22-0.72-0.34-1.08c-0.12-0.36-0.24-0.71-0.37-1.07
				c-0.02-0.06-0.05-0.13-0.07-0.19c-0.02-0.06-0.04-0.11-0.06-0.16c-0.08-0.23-0.17-0.45-0.25-0.68c-0.13-0.34-0.27-0.68-0.4-1.02
				c-0.1-0.23-0.21-0.48-0.31-0.71c-0.02-0.04-0.04-0.08-0.05-0.12c-0.03-0.05-0.05-0.11-0.07-0.16c-0.15-0.34-0.3-0.68-0.46-1.01
				c-0.17-0.37-0.35-0.73-0.53-1.1c-0.03-0.06-0.06-0.11-0.08-0.16c-0.03-0.06-0.06-0.12-0.1-0.19c-0.15-0.3-0.31-0.61-0.47-0.91
				c-0.21-0.38-0.42-0.75-0.63-1.12c-0.09-0.15-0.17-0.3-0.26-0.46c-0.05-0.08-0.09-0.17-0.14-0.25c-0.2-0.32-0.41-0.63-0.6-0.95
				c-0.27-0.43-0.54-0.88-0.82-1.3c-0.05-0.07-0.09-0.14-0.14-0.22c-0.41-0.62-0.85-1.24-1.29-1.84c-0.01,0-0.01-0.01-0.01-0.02
				c0-0.01-0.01-0.01-0.02-0.02c-0.3-0.41-0.61-0.82-0.92-1.21c-0.26-0.34-0.53-0.67-0.81-1c-0.26-0.32-0.53-0.63-0.8-0.94
				c-0.26-0.31-0.53-0.6-0.81-0.89c-0.04-0.05-0.08-0.09-0.13-0.13c-0.05-0.06-0.1-0.11-0.15-0.16c-0.19-0.21-0.38-0.41-0.58-0.61
				c-0.29-0.3-0.58-0.59-0.88-0.87c-0.09-0.09-0.18-0.17-0.28-0.26c-0.06-0.06-0.13-0.11-0.19-0.17c-0.15-0.14-0.3-0.28-0.45-0.42
				c-0.31-0.27-0.61-0.54-0.92-0.81c-0.14-0.12-0.29-0.23-0.44-0.35c-0.05-0.04-0.11-0.09-0.17-0.14c-0.11-0.08-0.22-0.18-0.33-0.27
				c-0.3-0.23-0.6-0.47-0.91-0.7c-0.23-0.17-0.47-0.34-0.71-0.5c-0.01-0.01-0.03-0.03-0.05-0.04c-0.05-0.03-0.1-0.07-0.14-0.1
				c-0.29-0.19-0.59-0.4-0.89-0.58c-0.29-0.18-0.58-0.36-0.88-0.53c-0.07-0.04-0.13-0.08-0.2-0.12c-0.23-0.13-0.45-0.25-0.67-0.37
				c-0.29-0.16-0.57-0.31-0.85-0.45c-0.2-0.1-0.39-0.19-0.59-0.28c-0.02-0.01-0.05-0.02-0.07-0.04c-0.06-0.02-0.13-0.05-0.19-0.08
				c-0.28-0.12-0.55-0.24-0.83-0.35c-0.28-0.11-0.56-0.22-0.84-0.32c-0.05-0.02-0.09-0.03-0.14-0.04c-0.04-0.02-0.09-0.03-0.13-0.04
				c-0.19-0.07-0.37-0.13-0.56-0.19c-0.29-0.09-0.58-0.16-0.86-0.24c-0.14-0.03-0.27-0.06-0.41-0.09c-0.06-0.01-0.12-0.03-0.18-0.04
				c-0.08-0.02-0.17-0.04-0.25-0.06c-0.31-0.06-0.62-0.11-0.91-0.15c-0.18-0.03-0.36-0.04-0.54-0.06c-0.07-0.01-0.14-0.02-0.22-0.02
				c-0.06-0.01-0.12-0.02-0.17-0.02c-0.33-0.02-0.65-0.03-0.97-0.03c-0.14,0-0.26,0.02-0.39,0.02c-0.13,0-0.26,0.01-0.38,0.02
				c-0.1,0-0.21,0-0.31,0.02c-0.41,0.04-0.81,0.1-1.2,0.17c-0.01,0-0.01,0-0.01,0c-0.18,0.03-0.34,0.1-0.51,0.14
				c-0.32,0.08-0.64,0.15-0.94,0.26c-0.03,0.01-0.07,0.03-0.1,0.04c-0.09,0.03-0.17,0.07-0.26,0.11c-0.46,0.18-0.9,0.39-1.32,0.62
				l-9.41,5.47c0.44-0.26,0.91-0.47,1.39-0.65c0.05-0.02,0.1-0.05,0.16-0.07c0.42-0.15,0.85-0.27,1.29-0.37
				c0.1-0.02,0.2-0.06,0.3-0.08c0.5-0.1,1.02-0.16,1.56-0.2c0.1-0.01,0.2-0.01,0.31-0.02c0.52-0.02,1.05-0.01,1.6,0.03
				c0.06,0,0.12,0.01,0.18,0.02c0.57,0.05,1.15,0.14,1.75,0.27c0.05,0.01,0.11,0.02,0.16,0.04c0.61,0.13,1.22,0.3,1.84,0.51
				c0.04,0.02,0.08,0.02,0.12,0.04c0.64,0.22,1.3,0.49,1.96,0.79c0.06,0.03,0.11,0.05,0.17,0.08c0.67,0.32,1.36,0.67,2.04,1.06
				c0.7,0.4,1.39,0.84,2.07,1.31c0.05,0.03,0.11,0.08,0.16,0.12c0.62,0.43,1.23,0.89,1.83,1.38c0.09,0.07,0.18,0.15,0.28,0.23
				c0.59,0.48,1.16,0.98,1.73,1.51c0.07,0.07,0.15,0.13,0.22,0.21c0.6,0.56,1.18,1.14,1.75,1.74c0.03,0.04,0.07,0.08,0.11,0.12
				c0.6,0.64,1.18,1.3,1.76,1.99c0.03,0.03,0.06,0.07,0.09,0.11c0.56,0.68,1.11,1.38,1.64,2.09c0.04,0.07,0.09,0.13,0.13,0.2
				c0.46,0.63,0.9,1.27,1.33,1.92c0.3,0.45,0.57,0.9,0.85,1.36c0.22,0.36,0.45,0.72,0.67,1.08c0.11,0.2,0.23,0.41,0.34,0.61
				c0.35,0.63,0.7,1.25,1.02,1.89c0.04,0.08,0.08,0.16,0.12,0.23c0.4,0.8,0.78,1.6,1.13,2.41c0.02,0.04,0.04,0.09,0.06,0.13
				c0.35,0.8,0.67,1.61,0.98,2.42c0.02,0.03,0.03,0.08,0.04,0.12c0.31,0.83,0.59,1.66,0.84,2.49c0.02,0.06,0.03,0.11,0.05,0.17
				c0.24,0.79,0.45,1.59,0.63,2.38c0.02,0.07,0.03,0.15,0.05,0.22c0.19,0.83,0.36,1.65,0.49,2.48c0,0,0,0.01,0,0.01
				c0.13,0.83,0.23,1.64,0.3,2.46c0,0.06,0.01,0.13,0.02,0.21c0.06,0.81,0.09,1.61,0.09,2.4c0,0.8-0.04,1.56-0.11,2.29
				c0,0.06-0.01,0.12-0.02,0.18c-0.07,0.68-0.16,1.33-0.29,1.96c-0.02,0.08-0.03,0.16-0.05,0.24c-0.13,0.61-0.27,1.18-0.45,1.74
				c-0.03,0.1-0.07,0.2-0.1,0.29c-0.18,0.54-0.37,1.04-0.6,1.52c-0.02,0.04-0.04,0.09-0.06,0.13c-0.25,0.54-0.53,1.05-0.84,1.53
				c-0.04,0.06-0.08,0.11-0.12,0.17c-0.26,0.38-0.53,0.74-0.82,1.08c-0.1,0.12-0.21,0.23-0.31,0.34c-0.25,0.27-0.52,0.52-0.79,0.77
				c-0.11,0.1-0.22,0.19-0.33,0.29c-0.38,0.31-0.78,0.59-1.2,0.84l9.41-5.46c0.42-0.25,0.82-0.53,1.21-0.84
				c0.11-0.09,0.22-0.19,0.32-0.29c0.28-0.23,0.54-0.49,0.8-0.77c0.1-0.11,0.21-0.22,0.31-0.34c0.29-0.34,0.56-0.69,0.81-1.08
				c0.04-0.06,0.09-0.11,0.13-0.17c0.01-0.01,0.02-0.03,0.03-0.04c0.29-0.45,0.55-0.92,0.79-1.43c0.01-0.01,0.02-0.03,0.03-0.05
				c0.02-0.04,0.04-0.09,0.06-0.14c0.15-0.32,0.29-0.64,0.41-0.98c0.06-0.17,0.11-0.35,0.17-0.52c0.03-0.1,0.07-0.2,0.1-0.31
				c0.03-0.09,0.06-0.18,0.09-0.27c0.11-0.35,0.2-0.7,0.28-1.07c0.03-0.13,0.05-0.27,0.08-0.41c0.02-0.08,0.04-0.15,0.05-0.23
				c0.02-0.13,0.05-0.25,0.08-0.39c0.06-0.33,0.11-0.66,0.15-1c0.02-0.19,0.04-0.38,0.06-0.58c0.01-0.07,0.02-0.13,0.02-0.2
				c0-0.08,0.02-0.15,0.02-0.23c0.03-0.33,0.05-0.65,0.06-0.98c0.01-0.33,0.02-0.67,0.02-1.01c0-0.02,0-0.04,0-0.06
				C438.12,173.63,438.12,173.32,438.11,173.01z"/>
			<g>
				<path class="st473" d="M407.95,143.43c11.51,6.64,20.8,22.76,20.76,35.98c-0.04,13.23-9.39,18.56-20.9,11.91
					c-11.51-6.64-20.81-22.74-20.77-35.97C387.09,142.14,396.44,136.79,407.95,143.43z"/>
			</g>
		</g>
		<path class="st474" d="M411.82,155.16c-0.05-16.77-5.99-28.59-15.56-34.15l-25.14-14.62c9.56,5.56,15.51,17.38,15.56,34.16
			l-0.11,14.02l0.02,3.63l25.14,14.61l-0.01-3.63L411.82,155.16z"/>
		<path class="st475" d="M411.82,155.16l-0.1,14.02l0.01,3.63l3.3-1.91l-0.05-17.57c-0.06-23.29-10.87-37.54-26.99-39.7v4.31
			C402.29,120.7,411.76,133.97,411.82,155.16z"/>
		<g>
			<path class="st476" d="M430.36,186.36c-0.01-0.43-0.03-0.85-0.06-1.27c-0.01-0.19-0.03-0.39-0.04-0.58
				c-0.01-0.09-0.02-0.17-0.02-0.26c-0.01-0.15-0.02-0.3-0.03-0.45c-0.04-0.42-0.09-0.85-0.14-1.29c-0.06-0.43-0.12-0.88-0.19-1.32
				c0-0.01,0-0.03-0.01-0.04c0,0,0-0.01,0-0.01c-0.06-0.42-0.14-0.85-0.22-1.28c-0.08-0.45-0.18-0.91-0.28-1.37
				c-0.03-0.16-0.08-0.33-0.11-0.49c-0.02-0.09-0.04-0.18-0.06-0.27c-0.05-0.21-0.09-0.41-0.15-0.62c-0.11-0.46-0.24-0.93-0.36-1.39
				c-0.1-0.33-0.19-0.66-0.29-0.98c-0.02-0.07-0.05-0.15-0.07-0.23c-0.02-0.06-0.03-0.11-0.05-0.17c-0.13-0.45-0.28-0.91-0.43-1.36
				c-0.15-0.45-0.3-0.89-0.47-1.34c-0.03-0.08-0.06-0.16-0.09-0.24c-0.02-0.07-0.05-0.13-0.08-0.2c-0.1-0.28-0.21-0.57-0.31-0.85
				c-0.17-0.43-0.34-0.86-0.52-1.28c-0.13-0.31-0.26-0.61-0.39-0.91c-0.02-0.05-0.04-0.1-0.06-0.15c-0.03-0.06-0.06-0.13-0.08-0.2
				c-0.19-0.43-0.38-0.85-0.58-1.27c-0.22-0.46-0.44-0.93-0.67-1.39c-0.03-0.07-0.07-0.13-0.1-0.19c-0.04-0.08-0.08-0.16-0.12-0.23
				c-0.2-0.39-0.39-0.77-0.6-1.15c-0.25-0.47-0.52-0.94-0.79-1.41c-0.11-0.19-0.21-0.39-0.32-0.58c-0.06-0.11-0.12-0.21-0.18-0.32
				c-0.24-0.4-0.5-0.79-0.75-1.19c-0.34-0.55-0.67-1.1-1.04-1.64c-0.06-0.08-0.11-0.18-0.17-0.27c-0.53-0.79-1.08-1.56-1.63-2.32
				c-0.01,0-0.01-0.01-0.01-0.02c-0.01-0.01-0.02-0.02-0.02-0.03c-0.38-0.51-0.77-1.02-1.16-1.52c-0.33-0.42-0.66-0.83-1.01-1.25
				c-0.33-0.4-0.67-0.8-1.01-1.18c-0.34-0.39-0.68-0.76-1.02-1.13c-0.06-0.06-0.11-0.11-0.16-0.17c-0.07-0.07-0.13-0.13-0.19-0.2
				c-0.24-0.26-0.48-0.51-0.73-0.76c-0.37-0.37-0.74-0.74-1.11-1.1c-0.12-0.11-0.24-0.22-0.35-0.33c-0.08-0.07-0.16-0.15-0.24-0.22
				c-0.19-0.17-0.37-0.35-0.56-0.52c-0.38-0.35-0.78-0.69-1.17-1.02c-0.17-0.15-0.36-0.29-0.54-0.44c-0.07-0.06-0.14-0.12-0.21-0.17
				c-0.14-0.11-0.28-0.23-0.42-0.34c-0.38-0.3-0.76-0.59-1.15-0.88c-0.29-0.22-0.6-0.43-0.89-0.63c-0.02-0.02-0.04-0.04-0.07-0.05
				c-0.06-0.04-0.12-0.08-0.18-0.13c-0.37-0.25-0.74-0.5-1.11-0.74c-0.37-0.23-0.73-0.46-1.11-0.67c-0.08-0.05-0.17-0.1-0.26-0.15
				c-0.28-0.16-0.56-0.31-0.83-0.47c-0.36-0.19-0.72-0.38-1.08-0.56c-0.25-0.12-0.49-0.24-0.74-0.35c-0.03-0.02-0.06-0.03-0.09-0.04
				c-0.07-0.04-0.16-0.07-0.23-0.11c-0.35-0.15-0.7-0.3-1.05-0.44c-0.36-0.14-0.7-0.27-1.06-0.4c-0.06-0.02-0.12-0.04-0.18-0.06
				c-0.05-0.02-0.11-0.04-0.16-0.05c-0.24-0.08-0.47-0.16-0.71-0.23c-0.37-0.11-0.73-0.2-1.08-0.3c-0.17-0.04-0.35-0.07-0.52-0.12
				c-0.08-0.02-0.16-0.03-0.24-0.05c-0.11-0.02-0.22-0.06-0.32-0.07c-0.39-0.08-0.77-0.14-1.15-0.19c-0.23-0.03-0.45-0.05-0.68-0.07
				c-0.1-0.01-0.19-0.02-0.28-0.03c-0.07-0.01-0.14-0.02-0.21-0.02c-0.42-0.03-0.83-0.04-1.24-0.04c-0.16,0-0.32,0.02-0.49,0.02
				c-0.16,0.01-0.32,0.01-0.48,0.03c-0.13,0-0.26,0-0.39,0.02c-0.52,0.04-1.02,0.12-1.51,0.22h-0.01c-0.22,0.04-0.43,0.13-0.64,0.18
				c-0.4,0.1-0.8,0.19-1.19,0.33c-0.04,0.02-0.08,0.03-0.12,0.05c-0.12,0.04-0.23,0.09-0.34,0.14c-0.57,0.23-1.13,0.49-1.66,0.79
				l-11.86,6.89c0.56-0.32,1.14-0.59,1.75-0.82c0.07-0.03,0.13-0.06,0.2-0.08c0.52-0.2,1.07-0.34,1.62-0.47
				c0.13-0.03,0.24-0.07,0.37-0.1c0.63-0.13,1.29-0.21,1.96-0.25c0.12,0,0.25-0.01,0.38-0.02c0.66-0.02,1.33-0.02,2.02,0.04
				c0.07,0.01,0.15,0.02,0.23,0.02c0.72,0.07,1.45,0.18,2.2,0.34c0.07,0.02,0.14,0.03,0.21,0.05c0.76,0.17,1.53,0.39,2.32,0.65
				c0.05,0.01,0.11,0.03,0.15,0.04c0.82,0.28,1.64,0.61,2.48,0.99c0.06,0.03,0.14,0.07,0.21,0.1c0.85,0.39,1.71,0.83,2.57,1.33
				c0.88,0.5,1.75,1.06,2.61,1.65c0.07,0.05,0.14,0.1,0.21,0.15c0.78,0.55,1.55,1.13,2.31,1.73c0.12,0.1,0.23,0.19,0.34,0.28
				c0.74,0.6,1.47,1.24,2.18,1.91c0.1,0.09,0.19,0.18,0.28,0.26c0.75,0.7,1.48,1.43,2.2,2.2c0.05,0.05,0.09,0.09,0.14,0.14
				c0.76,0.81,1.49,1.65,2.21,2.51c0.04,0.04,0.07,0.1,0.11,0.13c0.71,0.86,1.4,1.73,2.07,2.64c0.06,0.08,0.11,0.17,0.17,0.25
				c0.58,0.79,1.13,1.59,1.68,2.41c0.37,0.57,0.72,1.14,1.07,1.71c0.28,0.46,0.58,0.91,0.84,1.37c0.15,0.25,0.29,0.51,0.43,0.76
				c0.44,0.79,0.88,1.58,1.29,2.38c0.05,0.1,0.09,0.19,0.15,0.29c0.5,1,0.98,2.01,1.42,3.03c0.03,0.06,0.05,0.12,0.08,0.17
				c0.44,1.01,0.85,2.03,1.23,3.05c0.02,0.05,0.03,0.1,0.05,0.15c0.39,1.04,0.73,2.09,1.05,3.14c0.02,0.07,0.04,0.14,0.06,0.21
				c0.3,1.01,0.57,2,0.8,3c0.02,0.09,0.04,0.19,0.07,0.28c0.23,1.05,0.45,2.09,0.61,3.12c0,0.01,0,0.02,0,0.02
				c0.16,1.04,0.29,2.07,0.37,3.09c0.01,0.09,0.02,0.17,0.02,0.26c0.08,1.01,0.13,2.03,0.12,3.03c0,1-0.05,1.96-0.14,2.89
				c-0.01,0.08-0.02,0.15-0.02,0.22c-0.08,0.86-0.21,1.68-0.36,2.48c-0.02,0.1-0.04,0.2-0.06,0.3c-0.16,0.76-0.35,1.5-0.57,2.2
				c-0.04,0.12-0.08,0.24-0.12,0.36c-0.22,0.67-0.47,1.31-0.75,1.92c-0.02,0.05-0.04,0.11-0.06,0.16c-0.33,0.68-0.68,1.33-1.06,1.92
				c-0.05,0.07-0.1,0.14-0.15,0.22c-0.32,0.48-0.67,0.93-1.03,1.36c-0.12,0.15-0.26,0.29-0.39,0.43c-0.32,0.34-0.65,0.67-1,0.97
				c-0.14,0.12-0.27,0.24-0.41,0.36c-0.48,0.38-0.99,0.74-1.52,1.06l11.86-6.89c0.53-0.31,1.03-0.67,1.52-1.06
				c0.14-0.11,0.27-0.24,0.4-0.36c0.35-0.3,0.69-0.63,1.01-0.97c0.13-0.14,0.27-0.29,0.39-0.43c0.36-0.43,0.71-0.88,1.03-1.36
				c0.05-0.08,0.11-0.14,0.17-0.22c0-0.02,0.02-0.03,0.03-0.05c0.36-0.56,0.69-1.16,0.99-1.79c0.01-0.02,0.02-0.05,0.03-0.07
				c0.03-0.06,0.05-0.13,0.07-0.18c0.19-0.4,0.36-0.81,0.52-1.24c0.08-0.21,0.14-0.43,0.21-0.65c0.05-0.13,0.09-0.25,0.13-0.38
				c0.04-0.12,0.08-0.23,0.12-0.35c0.13-0.44,0.24-0.88,0.35-1.34c0.04-0.17,0.07-0.34,0.1-0.51c0.02-0.09,0.04-0.18,0.06-0.28
				c0.03-0.17,0.07-0.33,0.1-0.49c0.07-0.41,0.13-0.83,0.19-1.26c0.03-0.24,0.05-0.48,0.07-0.73c0.01-0.08,0.02-0.17,0.03-0.25
				c0.01-0.1,0.02-0.2,0.03-0.3c0.03-0.41,0.06-0.82,0.08-1.24c0.02-0.41,0.02-0.84,0.03-1.26c0-0.02,0-0.06,0-0.08
				C430.37,187.14,430.37,186.75,430.36,186.36z"/>
			<g>
				<path class="st477" d="M392.36,149.09c14.5,8.37,26.21,28.68,26.16,45.33c-0.05,16.66-11.84,23.37-26.33,15.01
					c-14.5-8.37-26.21-28.65-26.16-45.31C366.07,147.46,377.86,140.72,392.36,149.09z"/>
			</g>
		</g>
		<g>
			<g>
				<g>
					<g class="st478">
						<g>
							<polygon class="st476" points="397.94,295.93 420.55,282.79 420.85,174.59 398.24,187.74 							"/>
						</g>
						<g>
							<polygon class="st1" points="398.24,187.74 420.85,174.59 349.05,133.14 345.67,135.1 345.67,136.94 331.67,145.2 
								329.97,144.22 326.44,146.28 							"/>
						</g>
						<g>
							<polygon class="st477" points="326.44,146.28 326.14,254.47 397.94,295.93 398.24,187.74 							"/>
						</g>
					</g>
				</g>
				<polygon class="st479" points="331.67,145.2 398.24,183.45 413.96,174.59 345.67,136.94 				"/>
				<polygon class="st475" points="345.67,135.1 345.67,136.94 412.03,175.68 413.96,174.59 				"/>
			</g>
			<g>
				<g>
					<g class="st478">
						<g>
							<polygon class="st476" points="370.11,309.17 392.72,296.03 393.03,187.84 370.42,200.98 							"/>
						</g>
						<g>
							<polygon class="st1" points="370.42,200.98 393.03,187.84 321.22,146.38 317.84,148.35 317.84,150.19 303.84,158.44 
								302.14,157.47 298.62,159.52 							"/>
						</g>
						<g>
							<polygon class="st477" points="298.62,159.52 298.31,267.71 370.11,309.17 370.42,200.98 							"/>
						</g>
					</g>
				</g>
				<polygon class="st479" points="303.84,158.44 370.42,196.7 386.13,187.84 317.84,150.19 				"/>
				<polygon class="st475" points="317.84,148.35 317.84,150.19 384.2,188.92 386.13,187.84 				"/>
			</g>
			<g>
				<g>
					<g class="st478">
						<g>
							<polygon class="st476" points="341.07,322.84 363.68,309.7 363.99,201.51 341.38,214.64 							"/>
						</g>
						<g>
							<polygon class="st1" points="341.38,214.64 363.99,201.51 292.17,160.05 288.8,162.01 288.8,163.85 274.8,172.11 
								273.1,171.14 269.57,173.19 							"/>
						</g>
						<g>
							<polygon class="st1" points="269.57,173.19 269.26,281.38 341.07,322.84 341.38,214.64 							"/>
						</g>
					</g>
				</g>
				<polygon class="st479" points="274.8,172.11 341.38,210.37 357.09,201.51 288.8,163.85 				"/>
				<polygon class="st475" points="288.8,162.01 288.8,163.85 355.16,202.59 357.09,201.51 				"/>
			</g>
		</g>
		<g>
			<path class="st476" d="M328.26,242.67c-0.02-0.42-0.04-0.85-0.06-1.27c-0.01-0.19-0.03-0.38-0.04-0.58
				c-0.01-0.09-0.01-0.17-0.02-0.25c-0.01-0.15-0.02-0.3-0.04-0.45c-0.04-0.43-0.08-0.85-0.15-1.29c-0.05-0.43-0.11-0.88-0.18-1.32
				c0-0.01,0-0.03-0.01-0.04c0,0,0-0.01,0-0.01c-0.07-0.42-0.14-0.85-0.22-1.28c-0.08-0.45-0.18-0.91-0.28-1.37
				c-0.03-0.16-0.07-0.33-0.12-0.49c-0.02-0.09-0.04-0.18-0.06-0.27c-0.05-0.21-0.09-0.42-0.14-0.62c-0.12-0.47-0.24-0.93-0.37-1.39
				c-0.09-0.33-0.19-0.65-0.29-0.98c-0.02-0.07-0.04-0.15-0.07-0.23c-0.02-0.06-0.04-0.12-0.05-0.18c-0.14-0.46-0.29-0.91-0.43-1.36
				c-0.15-0.44-0.31-0.89-0.47-1.33c-0.03-0.08-0.06-0.16-0.09-0.24c-0.02-0.06-0.05-0.13-0.07-0.2c-0.1-0.28-0.21-0.57-0.32-0.85
				c-0.17-0.43-0.34-0.86-0.51-1.28c-0.13-0.3-0.26-0.6-0.39-0.9c-0.02-0.05-0.04-0.1-0.06-0.15c-0.03-0.06-0.06-0.13-0.09-0.2
				c-0.19-0.42-0.38-0.85-0.58-1.27c-0.22-0.47-0.44-0.93-0.67-1.39c-0.03-0.07-0.07-0.13-0.1-0.2c-0.04-0.08-0.08-0.15-0.12-0.23
				c-0.2-0.39-0.39-0.77-0.6-1.16c-0.25-0.47-0.52-0.94-0.79-1.4c-0.11-0.19-0.21-0.39-0.32-0.58c-0.06-0.11-0.12-0.21-0.18-0.32
				c-0.23-0.4-0.5-0.79-0.75-1.2c-0.34-0.55-0.67-1.1-1.04-1.64c-0.06-0.08-0.11-0.18-0.17-0.27c-0.52-0.79-1.07-1.57-1.63-2.32
				c0-0.01-0.01-0.01-0.02-0.02c-0.01-0.01-0.01-0.02-0.02-0.03c-0.38-0.51-0.77-1.02-1.16-1.52c-0.34-0.42-0.67-0.84-1.01-1.25
				c-0.33-0.4-0.67-0.8-1.01-1.18c-0.33-0.38-0.67-0.76-1.02-1.13c-0.05-0.05-0.1-0.11-0.15-0.16c-0.07-0.07-0.13-0.13-0.19-0.2
				c-0.24-0.26-0.49-0.51-0.73-0.76c-0.37-0.37-0.74-0.74-1.11-1.1c-0.11-0.11-0.23-0.22-0.35-0.33c-0.08-0.07-0.16-0.15-0.24-0.22
				c-0.18-0.17-0.38-0.35-0.56-0.52c-0.39-0.35-0.77-0.69-1.17-1.02c-0.18-0.15-0.36-0.29-0.54-0.44c-0.07-0.06-0.14-0.12-0.21-0.17
				c-0.14-0.11-0.28-0.23-0.42-0.34c-0.37-0.3-0.76-0.59-1.15-0.88c-0.3-0.22-0.59-0.43-0.89-0.64c-0.03-0.01-0.05-0.03-0.07-0.05
				c-0.05-0.04-0.12-0.08-0.18-0.13c-0.37-0.25-0.74-0.5-1.11-0.74c-0.37-0.23-0.74-0.45-1.11-0.67c-0.09-0.05-0.17-0.11-0.26-0.15
				c-0.28-0.16-0.56-0.32-0.83-0.46c-0.36-0.2-0.72-0.39-1.07-0.56c-0.25-0.12-0.49-0.24-0.74-0.35c-0.03-0.01-0.06-0.03-0.09-0.04
				c-0.08-0.03-0.16-0.07-0.23-0.11c-0.35-0.15-0.7-0.3-1.05-0.44c-0.35-0.14-0.71-0.27-1.06-0.4c-0.06-0.02-0.12-0.04-0.18-0.06
				c-0.05-0.02-0.11-0.04-0.17-0.06c-0.23-0.08-0.47-0.16-0.7-0.23c-0.37-0.11-0.73-0.21-1.08-0.3c-0.18-0.04-0.35-0.07-0.52-0.12
				c-0.08-0.02-0.16-0.03-0.23-0.04c-0.11-0.02-0.22-0.06-0.32-0.07c-0.39-0.08-0.77-0.14-1.15-0.19c-0.23-0.03-0.45-0.04-0.68-0.07
				c-0.09-0.01-0.18-0.02-0.27-0.02c-0.07-0.01-0.14-0.02-0.22-0.02c-0.42-0.03-0.82-0.04-1.23-0.04c-0.16,0-0.32,0.02-0.49,0.02
				c-0.16,0.01-0.32,0.01-0.48,0.02c-0.13,0.01-0.26,0-0.39,0.02c-0.52,0.05-1.02,0.12-1.51,0.22l-0.01,0
				c-0.22,0.04-0.43,0.12-0.64,0.17c-0.4,0.11-0.81,0.19-1.19,0.33c-0.04,0.01-0.08,0.04-0.13,0.05c-0.12,0.04-0.22,0.09-0.34,0.14
				c-0.57,0.23-1.13,0.49-1.66,0.79l-11.85,6.89c0.55-0.32,1.14-0.59,1.75-0.83c0.07-0.03,0.13-0.06,0.2-0.08
				c0.52-0.2,1.07-0.34,1.62-0.47c0.13-0.03,0.24-0.07,0.37-0.1c0.63-0.12,1.29-0.2,1.96-0.24c0.12-0.01,0.25-0.02,0.38-0.02
				c0.66-0.02,1.33-0.02,2.02,0.04c0.07,0,0.15,0.02,0.23,0.02c0.72,0.07,1.45,0.18,2.2,0.34c0.07,0.02,0.14,0.03,0.21,0.05
				c0.76,0.17,1.53,0.39,2.31,0.65c0.05,0.02,0.1,0.03,0.15,0.05c0.81,0.27,1.63,0.61,2.47,0.99c0.07,0.03,0.14,0.07,0.21,0.1
				c0.85,0.4,1.71,0.84,2.58,1.34c0.88,0.51,1.75,1.06,2.6,1.65c0.07,0.05,0.14,0.1,0.21,0.15c0.78,0.55,1.54,1.13,2.3,1.73
				c0.11,0.09,0.23,0.19,0.35,0.29c0.74,0.6,1.47,1.24,2.18,1.9c0.1,0.09,0.19,0.17,0.28,0.26c0.75,0.7,1.48,1.43,2.2,2.2
				c0.04,0.04,0.09,0.09,0.13,0.14c0.76,0.8,1.49,1.64,2.21,2.5c0.04,0.05,0.07,0.09,0.11,0.13c0.71,0.86,1.4,1.74,2.07,2.64
				c0.05,0.08,0.11,0.17,0.17,0.25c0.58,0.79,1.13,1.59,1.68,2.41c0.37,0.56,0.72,1.14,1.07,1.71c0.28,0.46,0.58,0.91,0.84,1.37
				c0.15,0.25,0.29,0.51,0.43,0.76c0.44,0.79,0.88,1.58,1.29,2.38c0.05,0.1,0.1,0.2,0.14,0.29c0.5,1,0.98,2.01,1.43,3.03
				c0.03,0.06,0.05,0.12,0.08,0.17c0.44,1.01,0.85,2.03,1.23,3.05c0.02,0.05,0.04,0.1,0.06,0.15c0.38,1.04,0.73,2.09,1.05,3.14
				c0.02,0.07,0.04,0.14,0.06,0.21c0.3,1,0.57,2,0.8,3c0.03,0.09,0.05,0.18,0.06,0.28c0.24,1.04,0.45,2.09,0.62,3.12
				c0,0.01,0,0.01,0,0.02c0.16,1.04,0.29,2.07,0.37,3.09c0.01,0.09,0.02,0.18,0.03,0.27c0.07,1.02,0.12,2.03,0.12,3.03
				c-0.01,1-0.06,1.96-0.14,2.89c-0.01,0.08-0.02,0.15-0.03,0.22c-0.09,0.86-0.21,1.68-0.36,2.48c-0.02,0.1-0.05,0.2-0.07,0.3
				c-0.16,0.76-0.35,1.49-0.57,2.2c-0.04,0.13-0.08,0.25-0.12,0.36c-0.23,0.67-0.47,1.31-0.75,1.92c-0.02,0.05-0.04,0.11-0.07,0.16
				c-0.32,0.68-0.68,1.32-1.06,1.92c-0.05,0.08-0.11,0.14-0.15,0.21c-0.32,0.48-0.66,0.93-1.03,1.36c-0.12,0.15-0.26,0.29-0.39,0.44
				c-0.32,0.34-0.66,0.66-1,0.96c-0.14,0.12-0.27,0.24-0.41,0.36c-0.48,0.38-0.99,0.75-1.52,1.06l11.85-6.89
				c0.54-0.31,1.04-0.67,1.52-1.06c0.14-0.11,0.27-0.23,0.41-0.35c0.35-0.31,0.69-0.63,1.01-0.98c0.13-0.14,0.26-0.28,0.39-0.43
				c0.36-0.43,0.71-0.87,1.03-1.35c0.05-0.08,0.11-0.14,0.16-0.22c0.01-0.01,0.03-0.03,0.03-0.05c0.36-0.56,0.69-1.16,0.99-1.8
				c0.01-0.02,0.02-0.05,0.03-0.07c0.03-0.06,0.05-0.12,0.08-0.18c0.18-0.39,0.36-0.81,0.52-1.24c0.08-0.21,0.14-0.44,0.22-0.65
				c0.04-0.13,0.09-0.25,0.13-0.38c0.04-0.12,0.08-0.23,0.12-0.35c0.13-0.44,0.24-0.88,0.35-1.34c0.04-0.17,0.07-0.34,0.1-0.51
				c0.02-0.09,0.04-0.18,0.06-0.28c0.03-0.16,0.07-0.32,0.09-0.49c0.07-0.41,0.13-0.82,0.19-1.25c0.03-0.24,0.05-0.49,0.07-0.73
				c0.01-0.08,0.02-0.16,0.03-0.25c0.01-0.1,0.02-0.18,0.03-0.29c0.04-0.41,0.06-0.82,0.08-1.24c0.02-0.41,0.03-0.84,0.03-1.26
				c0-0.03,0-0.06,0-0.08C328.28,243.46,328.27,243.06,328.26,242.67z"/>
			<g>
				<path class="st477" d="M290.26,205.41c14.49,8.37,26.2,28.68,26.16,45.34c-0.05,16.66-11.84,23.37-26.33,15
					c-14.5-8.37-26.21-28.65-26.16-45.31C263.97,203.78,275.76,197.03,290.26,205.41z"/>
			</g>
		</g>
		<path class="st480" d="M365.58,117.45c0.34-0.15,0.69-0.3,1.04-0.44c0.85-0.35,1.71-0.67,2.55-0.97c0.17-0.06,0.32-0.13,0.49-0.18
			c1.03-0.35,2.05-0.67,3.06-0.94c0.65-0.17,1.28-0.33,1.92-0.48c0.22-0.05,0.44-0.11,0.66-0.16c0.85-0.19,1.7-0.34,2.54-0.47
			c0.12-0.02,0.23-0.03,0.35-0.05c0.7-0.1,1.39-0.19,2.07-0.25c0.23-0.03,0.46-0.04,0.69-0.05c0.48-0.04,0.96-0.06,1.43-0.08
			c1.12-0.04,2.23-0.03,3.31,0.03c0.11,0.01,0.23,0.02,0.35,0.03c0.94,0.07,1.85,0.17,2.75,0.32c0.23,0.04,0.47,0.08,0.71,0.12
			c0.98,0.18,1.94,0.39,2.87,0.66c0.92,0.27,1.82,0.6,2.7,0.95c0.21,0.08,0.42,0.18,0.63,0.27c0.76,0.33,1.51,0.7,2.24,1.1
			c0.19,0.1,0.39,0.19,0.58,0.3l-17.72-10.29l-7.74-4.5c-0.16-0.08-0.33-0.15-0.49-0.24c-0.63-0.34-1.28-0.65-1.94-0.94
			c-0.14-0.06-0.27-0.14-0.41-0.2c-0.11-0.04-0.23-0.07-0.34-0.12c-0.84-0.34-1.69-0.64-2.56-0.9c-0.03-0.01-0.06-0.02-0.08-0.03
			c-0.01,0-0.02,0-0.02-0.01c-0.91-0.27-1.86-0.47-2.81-0.65c-0.12-0.02-0.23-0.06-0.34-0.08c-0.16-0.02-0.32-0.03-0.47-0.05
			c-0.81-0.13-1.64-0.23-2.49-0.29c-0.15-0.01-0.3-0.04-0.46-0.06c-0.05,0-0.11,0-0.16,0c-1.06-0.06-2.14-0.06-3.24-0.03
			c-0.11,0.01-0.22-0.01-0.34,0c-0.34,0.02-0.68,0.05-1.01,0.07c-0.27,0.02-0.53,0.04-0.8,0.06c-0.69,0.06-1.38,0.15-2.07,0.25
			c-0.1,0.01-0.2,0.02-0.3,0.04c0,0-0.01,0-0.02,0c-0.83,0.13-1.67,0.28-2.5,0.46c-0.32,0.07-0.65,0.16-0.98,0.24
			c-0.49,0.11-0.98,0.22-1.48,0.36c-0.04,0.01-0.08,0.03-0.12,0.03c-1.02,0.28-2.04,0.59-3.09,0.95c-0.16,0.06-0.33,0.12-0.49,0.18
			c-0.88,0.31-1.77,0.65-2.67,1.02c-0.09,0.04-0.17,0.06-0.26,0.1c-0.15,0.06-0.32,0.15-0.48,0.22c-0.95,0.4-1.91,0.84-2.88,1.31
			c-0.3,0.15-0.6,0.29-0.91,0.45c-1.19,0.6-2.39,1.23-3.6,1.93c-1.51,0.87-3,1.82-4.48,2.81c-0.23,0.15-0.46,0.3-0.68,0.45
			c-1.42,0.97-2.82,2-4.2,3.06c-0.24,0.18-0.48,0.37-0.71,0.56c-1.42,1.11-2.82,2.26-4.19,3.47c-0.08,0.06-0.15,0.13-0.23,0.2
			c-1.36,1.2-2.69,2.44-4.01,3.74c-0.11,0.1-0.22,0.19-0.32,0.3c-0.07,0.07-0.13,0.14-0.2,0.2c-1.96,1.94-3.86,3.97-5.72,6.09
			c-0.08,0.09-0.17,0.18-0.25,0.27c-0.1,0.13-0.21,0.26-0.32,0.39c-1.42,1.64-2.8,3.32-4.15,5.05c-0.03,0.05-0.08,0.09-0.12,0.14
			c-0.1,0.14-0.2,0.27-0.3,0.41c-1.11,1.44-2.19,2.91-3.24,4.4c-0.08,0.11-0.16,0.2-0.23,0.31c-0.04,0.05-0.07,0.1-0.1,0.15
			c-0.99,1.42-1.95,2.85-2.89,4.31c-0.09,0.15-0.19,0.28-0.29,0.43c-0.14,0.22-0.27,0.45-0.41,0.67c-0.75,1.19-1.49,2.4-2.2,3.61
			c-0.1,0.17-0.21,0.34-0.31,0.51c-0.04,0.06-0.07,0.13-0.11,0.19c-0.82,1.4-1.6,2.81-2.37,4.25c-0.06,0.11-0.13,0.22-0.19,0.33
			c-0.11,0.22-0.22,0.45-0.34,0.67c-0.61,1.16-1.21,2.33-1.78,3.52c-0.1,0.21-0.21,0.41-0.32,0.63c-0.06,0.12-0.11,0.25-0.17,0.36
			c-0.7,1.47-1.38,2.96-2.03,4.45c-0.01,0.03-0.03,0.06-0.04,0.1c-0.05,0.12-0.09,0.23-0.14,0.35c-0.58,1.34-1.13,2.69-1.65,4.03
			c-0.09,0.23-0.19,0.46-0.28,0.69c-0.07,0.2-0.14,0.38-0.2,0.58c-0.59,1.56-1.16,3.12-1.68,4.68c-0.01,0.02-0.02,0.05-0.03,0.08
			c-0.03,0.08-0.05,0.16-0.08,0.25c-0.54,1.63-1.03,3.27-1.49,4.9c-0.06,0.2-0.13,0.4-0.19,0.6c-0.03,0.11-0.05,0.22-0.08,0.32
			c-0.52,1.9-0.98,3.79-1.39,5.68c-0.03,0.16-0.08,0.32-0.11,0.48c-0.05,0.22-0.08,0.44-0.13,0.66c-0.16,0.78-0.3,1.54-0.44,2.31
			c-0.09,0.48-0.18,0.96-0.25,1.44c-0.14,0.81-0.25,1.61-0.37,2.41c-0.04,0.32-0.11,0.65-0.14,0.98c-0.01,0.08-0.02,0.16-0.03,0.24
			c-0.21,1.64-0.37,3.27-0.48,4.89c-0.02,0.32-0.04,0.64-0.06,0.95c-0.1,1.66-0.16,3.3-0.16,4.92l0.05,17.57l25.15,14.61
			l-0.05-17.57c0-1.6,0.06-3.23,0.15-4.86c0.02-0.35,0.04-0.71,0.06-1.06c0.11-1.59,0.27-3.18,0.47-4.79
			c0.06-0.48,0.13-0.96,0.2-1.44c0.11-0.73,0.21-1.47,0.33-2.21c0.09-0.5,0.18-1.02,0.27-1.53c0.14-0.74,0.28-1.47,0.43-2.21
			c0.08-0.41,0.17-0.81,0.26-1.22c0.42-1.88,0.87-3.77,1.39-5.66c0.08-0.3,0.17-0.6,0.25-0.9c0.46-1.6,0.94-3.2,1.47-4.8
			c0.05-0.17,0.1-0.33,0.15-0.49c0.53-1.58,1.1-3.15,1.7-4.72c0.14-0.36,0.28-0.72,0.42-1.08c0.51-1.31,1.04-2.61,1.59-3.91
			c0.11-0.24,0.21-0.5,0.31-0.74c0.63-1.45,1.29-2.89,1.98-4.32c0.17-0.36,0.35-0.72,0.52-1.08c0.59-1.2,1.19-2.39,1.81-3.57
			c0.15-0.29,0.29-0.56,0.44-0.85c0.77-1.45,1.57-2.88,2.4-4.3c0.13-0.23,0.27-0.45,0.4-0.68c0.73-1.23,1.47-2.44,2.23-3.65
			c0.22-0.35,0.45-0.71,0.68-1.07c0.93-1.44,1.87-2.85,2.85-4.25c0.15-0.22,0.31-0.43,0.46-0.65c1.02-1.45,2.07-2.87,3.15-4.27
			c0.13-0.17,0.27-0.36,0.41-0.53c1.37-1.76,2.77-3.47,4.22-5.14c0.16-0.17,0.31-0.35,0.46-0.53c1.86-2.13,3.77-4.17,5.74-6.11
			c0.19-0.19,0.39-0.38,0.59-0.57c1.28-1.25,2.58-2.46,3.89-3.63c0.11-0.1,0.21-0.19,0.31-0.29c1.35-1.19,2.73-2.31,4.12-3.41
			c0.26-0.21,0.53-0.42,0.8-0.62c1.36-1.05,2.74-2.06,4.13-3.01c0.25-0.18,0.5-0.34,0.75-0.5c1.46-0.98,2.94-1.92,4.43-2.78
			c1.21-0.69,2.4-1.32,3.59-1.92c0.32-0.16,0.65-0.32,0.97-0.48C363.82,118.23,364.71,117.82,365.58,117.45z"/>
		<path class="st475" d="M358.38,121.06c-31.12,17.97-56.35,61.67-56.25,97.43l0.05,17.57l3.3-1.9l-0.15-3.55l-0.04-13.94
			c-0.09-33.76,23.72-75.01,53.1-91.97c10.93-6.31,21.11-8.37,29.59-6.74v-4.31C379.36,112.49,369.23,114.8,358.38,121.06z"/>
		<g>
			<path class="st472" d="M309.43,246.96c-0.01-0.34-0.02-0.68-0.05-1.01c-0.01-0.15-0.02-0.31-0.03-0.46
				c-0.01-0.07-0.01-0.14-0.02-0.21c-0.02-0.11-0.02-0.23-0.03-0.35c-0.03-0.34-0.07-0.68-0.11-1.02c-0.05-0.35-0.1-0.7-0.15-1.05
				c0-0.01,0-0.02-0.01-0.03c0,0,0,0,0-0.01c-0.05-0.33-0.1-0.67-0.17-1.01c-0.07-0.36-0.14-0.72-0.22-1.09
				c-0.03-0.13-0.06-0.26-0.09-0.39c-0.02-0.07-0.03-0.14-0.05-0.21c-0.04-0.17-0.07-0.33-0.12-0.49c-0.09-0.37-0.19-0.74-0.28-1.1
				c-0.07-0.26-0.15-0.53-0.23-0.78c-0.02-0.06-0.03-0.12-0.05-0.18c-0.01-0.05-0.03-0.09-0.04-0.14c-0.11-0.36-0.23-0.72-0.35-1.08
				c-0.12-0.36-0.24-0.71-0.37-1.07c-0.02-0.06-0.04-0.12-0.07-0.19c-0.02-0.05-0.04-0.11-0.06-0.15c-0.08-0.23-0.16-0.45-0.25-0.68
				c-0.13-0.34-0.27-0.68-0.41-1.01c-0.1-0.24-0.21-0.48-0.31-0.72c-0.02-0.04-0.04-0.08-0.05-0.11c-0.03-0.05-0.05-0.11-0.07-0.16
				c-0.15-0.34-0.3-0.68-0.46-1.01c-0.17-0.37-0.35-0.73-0.53-1.1c-0.03-0.05-0.05-0.1-0.08-0.15c-0.03-0.06-0.07-0.12-0.09-0.19
				c-0.16-0.3-0.31-0.61-0.48-0.91c-0.2-0.37-0.41-0.75-0.62-1.12c-0.09-0.15-0.17-0.3-0.26-0.45c-0.05-0.08-0.09-0.17-0.14-0.25
				c-0.19-0.32-0.4-0.63-0.6-0.95c-0.27-0.44-0.54-0.88-0.82-1.3c-0.05-0.07-0.09-0.15-0.14-0.22c-0.42-0.63-0.85-1.25-1.29-1.85
				c0-0.01,0-0.01-0.01-0.01c0-0.01-0.01-0.02-0.02-0.02c-0.3-0.41-0.61-0.82-0.92-1.21c-0.26-0.34-0.54-0.67-0.8-1
				c-0.27-0.32-0.54-0.63-0.81-0.94c-0.26-0.3-0.53-0.6-0.81-0.89c-0.04-0.05-0.08-0.09-0.12-0.13c-0.05-0.06-0.1-0.11-0.15-0.16
				c-0.19-0.2-0.38-0.41-0.58-0.61c-0.29-0.3-0.58-0.58-0.88-0.87c-0.09-0.09-0.18-0.17-0.28-0.26c-0.06-0.06-0.13-0.11-0.19-0.18
				c-0.15-0.13-0.3-0.28-0.45-0.41c-0.31-0.28-0.61-0.54-0.92-0.81c-0.14-0.12-0.29-0.23-0.43-0.35c-0.05-0.04-0.11-0.09-0.17-0.14
				c-0.11-0.09-0.21-0.18-0.33-0.26c-0.3-0.24-0.61-0.47-0.92-0.7c-0.23-0.17-0.47-0.34-0.71-0.5c-0.02-0.01-0.03-0.03-0.05-0.04
				c-0.05-0.04-0.1-0.07-0.14-0.11c-0.3-0.2-0.59-0.39-0.89-0.58c-0.29-0.19-0.59-0.37-0.88-0.54c-0.07-0.05-0.14-0.08-0.21-0.12
				c-0.22-0.13-0.45-0.25-0.66-0.37c-0.29-0.16-0.57-0.31-0.85-0.44c-0.2-0.1-0.4-0.19-0.59-0.28c-0.02-0.01-0.04-0.02-0.07-0.04
				c-0.06-0.02-0.12-0.06-0.18-0.08c-0.28-0.12-0.55-0.24-0.84-0.35c-0.28-0.11-0.56-0.21-0.84-0.32c-0.05-0.02-0.1-0.03-0.15-0.05
				c-0.04-0.02-0.08-0.03-0.13-0.04c-0.19-0.06-0.37-0.13-0.57-0.18c-0.29-0.09-0.57-0.17-0.86-0.24c-0.14-0.04-0.27-0.06-0.41-0.09
				c-0.06-0.02-0.13-0.03-0.19-0.04c-0.09-0.02-0.18-0.04-0.26-0.06c-0.31-0.06-0.61-0.11-0.91-0.15c-0.18-0.02-0.35-0.04-0.53-0.05
				c-0.07-0.01-0.15-0.02-0.22-0.03c-0.06,0-0.12-0.01-0.17-0.02c-0.33-0.02-0.65-0.03-0.98-0.03c-0.13,0-0.25,0.01-0.38,0.02
				c-0.13,0.01-0.26,0.01-0.39,0.02c-0.1,0.01-0.21,0.01-0.31,0.01c-0.41,0.04-0.81,0.1-1.2,0.18c-0.01,0-0.01,0-0.01,0
				c-0.18,0.04-0.33,0.1-0.51,0.14c-0.31,0.08-0.64,0.15-0.94,0.26c-0.04,0.01-0.07,0.03-0.1,0.04c-0.09,0.03-0.18,0.07-0.27,0.11
				c-0.45,0.18-0.9,0.38-1.31,0.63l-9.41,5.47c0.44-0.26,0.91-0.47,1.38-0.66c0.05-0.02,0.1-0.04,0.16-0.07
				c0.41-0.16,0.84-0.27,1.29-0.37c0.1-0.02,0.19-0.06,0.29-0.08c0.5-0.1,1.03-0.16,1.56-0.19c0.1-0.01,0.2-0.01,0.3-0.02
				c0.52-0.02,1.05-0.01,1.6,0.03c0.06,0.01,0.12,0.01,0.18,0.02c0.57,0.05,1.15,0.14,1.75,0.27c0.05,0.01,0.11,0.02,0.17,0.03
				c0.61,0.13,1.22,0.31,1.84,0.51c0.04,0.01,0.08,0.03,0.12,0.04c0.64,0.22,1.3,0.49,1.96,0.79c0.06,0.03,0.11,0.06,0.17,0.08
				c0.67,0.31,1.35,0.66,2.04,1.06c0.7,0.4,1.39,0.84,2.06,1.32c0.06,0.04,0.11,0.08,0.17,0.12c0.62,0.44,1.23,0.9,1.82,1.38
				c0.1,0.08,0.19,0.15,0.28,0.23c0.59,0.48,1.16,0.99,1.73,1.51c0.08,0.07,0.15,0.14,0.23,0.21c0.59,0.56,1.17,1.14,1.74,1.75
				c0.04,0.04,0.07,0.07,0.11,0.11c0.6,0.64,1.19,1.3,1.75,1.99c0.03,0.03,0.06,0.07,0.09,0.11c0.56,0.68,1.11,1.37,1.64,2.09
				c0.04,0.07,0.08,0.13,0.13,0.19c0.46,0.63,0.91,1.27,1.33,1.92c0.29,0.44,0.58,0.9,0.85,1.36c0.22,0.36,0.46,0.72,0.67,1.09
				c0.12,0.2,0.23,0.41,0.34,0.61c0.35,0.62,0.7,1.26,1.02,1.89c0.04,0.07,0.08,0.15,0.12,0.23c0.4,0.79,0.78,1.6,1.13,2.41
				c0.02,0.05,0.04,0.09,0.06,0.14c0.35,0.8,0.68,1.61,0.98,2.42c0.02,0.04,0.03,0.08,0.05,0.12c0.3,0.83,0.58,1.65,0.83,2.49
				c0.02,0.06,0.03,0.11,0.05,0.17c0.24,0.8,0.45,1.59,0.64,2.39c0.01,0.07,0.03,0.15,0.05,0.22c0.19,0.83,0.35,1.66,0.49,2.47
				c0,0.01,0,0.02,0,0.02c0.13,0.82,0.22,1.64,0.3,2.45c0,0.07,0,0.13,0.02,0.21c0.06,0.81,0.09,1.61,0.09,2.41
				c0,0.79-0.04,1.55-0.11,2.29c-0.01,0.06-0.01,0.12-0.02,0.18c-0.07,0.68-0.16,1.33-0.29,1.96c-0.02,0.08-0.04,0.16-0.05,0.23
				c-0.12,0.61-0.28,1.19-0.45,1.74c-0.03,0.1-0.06,0.2-0.1,0.29c-0.18,0.53-0.37,1.04-0.6,1.52c-0.02,0.04-0.03,0.09-0.05,0.13
				c-0.25,0.53-0.54,1.05-0.84,1.52c-0.04,0.06-0.09,0.11-0.12,0.17c-0.26,0.38-0.53,0.74-0.82,1.08c-0.1,0.12-0.2,0.23-0.31,0.34
				c-0.25,0.28-0.51,0.53-0.79,0.77c-0.11,0.09-0.22,0.19-0.33,0.28c-0.38,0.31-0.78,0.6-1.21,0.84l9.41-5.47
				c0.42-0.25,0.83-0.54,1.21-0.84c0.12-0.09,0.22-0.18,0.33-0.28c0.27-0.24,0.54-0.49,0.8-0.77c0.1-0.12,0.21-0.22,0.31-0.34
				c0.29-0.34,0.56-0.7,0.81-1.08c0.04-0.06,0.09-0.11,0.13-0.18c0.01-0.01,0.02-0.02,0.03-0.04c0.29-0.44,0.55-0.92,0.79-1.42
				c0.01-0.02,0.02-0.04,0.03-0.06c0.02-0.04,0.04-0.1,0.06-0.14c0.15-0.32,0.29-0.65,0.41-0.99c0.07-0.16,0.12-0.35,0.17-0.51
				c0.03-0.1,0.07-0.2,0.1-0.31c0.03-0.09,0.06-0.18,0.09-0.27c0.1-0.35,0.2-0.7,0.28-1.07c0.03-0.13,0.05-0.27,0.08-0.41
				c0.02-0.07,0.03-0.15,0.04-0.22c0.03-0.14,0.05-0.26,0.08-0.39c0.06-0.32,0.11-0.66,0.15-1c0.02-0.18,0.04-0.38,0.06-0.57
				c0-0.07,0.01-0.13,0.02-0.2c0.01-0.08,0.02-0.16,0.03-0.24c0.03-0.32,0.05-0.65,0.06-0.99c0.01-0.33,0.02-0.67,0.02-1.01
				c0-0.02,0-0.04,0-0.06C309.44,247.58,309.44,247.27,309.43,246.96z"/>
			<g>
				<path class="st473" d="M279.28,217.38c11.51,6.65,20.8,22.76,20.76,35.98c-0.03,13.22-9.39,18.55-20.9,11.91
					c-11.51-6.65-20.8-22.74-20.76-35.97C258.41,216.1,267.76,210.74,279.28,217.38z"/>
			</g>
		</g>
		<path class="st475" d="M288.77,245.19c0-0.16-0.01-0.31-0.02-0.46c0-0.07-0.01-0.14-0.02-0.21c0-0.03,0-0.06,0-0.09
			c-0.01-0.05-0.01-0.11-0.02-0.16c-0.02-0.16-0.03-0.31-0.05-0.47c-0.02-0.16-0.04-0.32-0.07-0.49c0,0,0-0.01,0-0.02v0
			c-0.03-0.15-0.05-0.31-0.08-0.46c-0.03-0.16-0.07-0.33-0.1-0.5c-0.01-0.06-0.03-0.12-0.04-0.18c0-0.03-0.02-0.07-0.02-0.1
			c-0.02-0.08-0.03-0.15-0.06-0.23c-0.04-0.17-0.09-0.34-0.13-0.51c-0.03-0.12-0.07-0.24-0.11-0.36c-0.01-0.03-0.01-0.06-0.02-0.09
			c-0.01-0.02-0.02-0.04-0.02-0.07c-0.05-0.16-0.1-0.33-0.16-0.5c-0.06-0.16-0.11-0.33-0.17-0.49c-0.01-0.03-0.02-0.06-0.03-0.09
			c-0.01-0.03-0.02-0.05-0.03-0.07c-0.04-0.11-0.07-0.21-0.12-0.31c-0.06-0.16-0.12-0.32-0.19-0.47c-0.05-0.11-0.09-0.22-0.14-0.33
			c-0.01-0.01-0.02-0.04-0.02-0.05c-0.01-0.03-0.02-0.05-0.03-0.07c-0.07-0.15-0.14-0.31-0.21-0.46c-0.08-0.17-0.16-0.34-0.25-0.51
			c-0.01-0.02-0.02-0.04-0.04-0.07c-0.01-0.03-0.03-0.05-0.04-0.08c-0.07-0.14-0.14-0.29-0.22-0.42c-0.09-0.17-0.19-0.35-0.29-0.52
			c-0.04-0.07-0.08-0.14-0.12-0.21c-0.02-0.04-0.04-0.08-0.06-0.12c-0.09-0.15-0.19-0.29-0.27-0.44c-0.13-0.2-0.25-0.4-0.38-0.6
			c-0.02-0.03-0.04-0.06-0.07-0.09c-0.19-0.29-0.39-0.58-0.6-0.85c0,0,0,0-0.01-0.01c0,0,0,0,0-0.01c-0.14-0.18-0.28-0.38-0.42-0.56
			c-0.12-0.16-0.25-0.31-0.37-0.46c-0.12-0.15-0.25-0.29-0.37-0.44c-0.12-0.14-0.25-0.27-0.38-0.41c-0.02-0.02-0.04-0.04-0.05-0.06
			c-0.03-0.03-0.05-0.05-0.07-0.07c-0.09-0.09-0.17-0.19-0.26-0.28c-0.13-0.14-0.27-0.27-0.41-0.4c-0.04-0.04-0.08-0.08-0.13-0.12
			c-0.03-0.03-0.06-0.06-0.09-0.08c-0.07-0.06-0.14-0.13-0.21-0.19c-0.14-0.13-0.29-0.25-0.42-0.37c-0.07-0.06-0.14-0.11-0.2-0.16
			c-0.03-0.02-0.05-0.04-0.08-0.06c-0.05-0.04-0.1-0.08-0.15-0.12c-0.14-0.11-0.28-0.22-0.42-0.32c-0.11-0.08-0.22-0.16-0.32-0.23
			c-0.01,0-0.02-0.01-0.02-0.02c-0.03-0.01-0.05-0.03-0.07-0.05c-0.13-0.09-0.27-0.18-0.41-0.27c-0.13-0.09-0.27-0.17-0.41-0.25
			c-0.03-0.02-0.06-0.04-0.1-0.06c-0.1-0.06-0.21-0.12-0.3-0.17c-0.13-0.07-0.26-0.14-0.39-0.21c-0.1-0.04-0.19-0.08-0.27-0.13
			c-0.01,0-0.02-0.01-0.03-0.02c-0.03-0.01-0.06-0.02-0.08-0.04c-0.13-0.05-0.26-0.11-0.38-0.16c-0.13-0.05-0.26-0.1-0.39-0.14
			c-0.02-0.01-0.05-0.01-0.07-0.02c-0.02-0.01-0.04-0.01-0.06-0.02c-0.09-0.03-0.17-0.06-0.26-0.09c-0.13-0.04-0.26-0.07-0.4-0.11
			c-0.06-0.02-0.13-0.03-0.19-0.04c-0.03,0-0.06-0.01-0.09-0.02c-0.04-0.01-0.08-0.01-0.12-0.02c-0.14-0.03-0.28-0.05-0.42-0.07
			c-0.08-0.01-0.17-0.02-0.25-0.03c-0.04-0.01-0.07-0.01-0.1-0.01c-0.03,0-0.05,0-0.08-0.01c-0.16-0.01-0.3-0.02-0.45-0.01
			c-0.06,0-0.12,0-0.18,0.01c-0.06,0.01-0.12,0.01-0.18,0.01c-0.04,0-0.1,0-0.14,0c-0.19,0.02-0.37,0.05-0.55,0.08c0,0,0,0,0,0
			c-0.08,0.02-0.15,0.04-0.23,0.06c-0.15,0.04-0.3,0.07-0.44,0.12c-0.02,0.01-0.03,0.01-0.05,0.02c-0.04,0.01-0.08,0.03-0.12,0.05
			c-0.21,0.08-0.41,0.17-0.61,0.28l-4.35,2.53c0.21-0.12,0.42-0.22,0.64-0.3c0.03-0.01,0.05-0.02,0.07-0.03
			c0.19-0.07,0.39-0.13,0.6-0.17c0.05-0.01,0.09-0.03,0.13-0.04c0.23-0.05,0.47-0.07,0.72-0.09c0.05-0.01,0.09-0.01,0.14-0.01
			c0.24-0.01,0.49-0.01,0.74,0.01c0.03,0,0.06,0,0.08,0.01c0.26,0.03,0.53,0.07,0.8,0.12c0.03,0.01,0.06,0.02,0.08,0.02
			c0.28,0.06,0.56,0.14,0.85,0.24c0.02,0.01,0.04,0.01,0.05,0.02c0.3,0.1,0.6,0.23,0.91,0.36c0.02,0.01,0.05,0.02,0.08,0.04
			c0.31,0.14,0.62,0.31,0.94,0.49c0.32,0.19,0.64,0.39,0.95,0.61c0.03,0.01,0.05,0.03,0.08,0.05c0.29,0.2,0.57,0.42,0.84,0.64
			c0.04,0.03,0.09,0.07,0.13,0.11c0.27,0.22,0.54,0.45,0.8,0.69c0.03,0.03,0.07,0.07,0.1,0.1c0.28,0.26,0.55,0.53,0.81,0.8
			c0.02,0.02,0.03,0.04,0.05,0.05c0.28,0.3,0.55,0.6,0.81,0.92c0.01,0.01,0.03,0.03,0.04,0.05c0.26,0.31,0.51,0.64,0.76,0.96
			c0.02,0.03,0.04,0.06,0.06,0.09c0.21,0.29,0.42,0.59,0.62,0.89c0.14,0.21,0.27,0.42,0.39,0.63c0.1,0.16,0.21,0.33,0.31,0.5
			c0.05,0.09,0.1,0.19,0.15,0.28c0.16,0.29,0.32,0.58,0.47,0.88c0.02,0.03,0.04,0.07,0.05,0.1c0.19,0.36,0.36,0.74,0.52,1.11
			c0.01,0.02,0.02,0.04,0.03,0.07c0.16,0.37,0.31,0.74,0.45,1.12c0,0.02,0.01,0.04,0.02,0.05c0.14,0.38,0.27,0.76,0.39,1.15
			c0.01,0.03,0.02,0.05,0.02,0.08c0.11,0.36,0.21,0.73,0.29,1.1c0.01,0.03,0.02,0.07,0.02,0.1c0.09,0.38,0.16,0.76,0.22,1.14v0
			c0.06,0.38,0.11,0.76,0.14,1.14c0,0.03,0,0.06,0.01,0.09c0.03,0.37,0.04,0.75,0.04,1.11c0,0.36-0.02,0.72-0.05,1.06
			c0,0.03-0.01,0.05-0.01,0.08c-0.03,0.31-0.08,0.62-0.13,0.91c-0.01,0.04-0.02,0.07-0.02,0.11c-0.06,0.28-0.13,0.55-0.21,0.81
			c-0.01,0.05-0.03,0.09-0.04,0.13c-0.09,0.25-0.17,0.48-0.28,0.7c-0.01,0.02-0.01,0.04-0.02,0.06c-0.12,0.25-0.25,0.49-0.39,0.71
			c-0.02,0.03-0.04,0.05-0.06,0.08c-0.12,0.17-0.24,0.34-0.38,0.5c-0.05,0.05-0.09,0.11-0.15,0.16c-0.11,0.13-0.24,0.24-0.36,0.36
			c-0.05,0.04-0.1,0.09-0.15,0.13c-0.18,0.14-0.36,0.27-0.55,0.39l4.34-2.53c0.2-0.11,0.38-0.25,0.56-0.39
			c0.05-0.04,0.1-0.09,0.15-0.13c0.12-0.11,0.25-0.23,0.37-0.35c0.05-0.05,0.1-0.1,0.14-0.16c0.13-0.15,0.26-0.32,0.38-0.5
			c0.02-0.03,0.04-0.05,0.06-0.08c0-0.01,0.01-0.01,0.02-0.02c0.13-0.2,0.25-0.42,0.36-0.65c0-0.01,0-0.02,0.01-0.03
			c0.01-0.02,0.02-0.05,0.03-0.07c0.07-0.14,0.13-0.3,0.19-0.45c0.03-0.08,0.05-0.16,0.08-0.24c0.02-0.05,0.03-0.09,0.05-0.14
			c0.01-0.04,0.03-0.08,0.04-0.12c0.05-0.16,0.09-0.33,0.13-0.49c0.01-0.06,0.02-0.12,0.03-0.19c0.01-0.04,0.02-0.07,0.02-0.1
			c0.01-0.06,0.03-0.12,0.04-0.18c0.03-0.15,0.05-0.3,0.07-0.46c0.01-0.09,0.02-0.18,0.03-0.26c0-0.03,0-0.06,0.01-0.09
			c0-0.04,0.01-0.07,0.01-0.11c0.01-0.15,0.02-0.3,0.03-0.46c0-0.15,0.01-0.31,0.01-0.46c0-0.01,0-0.02,0-0.03
			C288.78,245.48,288.77,245.33,288.77,245.19z"/>
		<g>
			<path class="st480" d="M274.85,231.54c5.31,3.07,9.6,10.51,9.58,16.61c-0.01,6.1-4.33,8.56-9.64,5.5
				c-5.31-3.07-9.6-10.5-9.59-16.6C265.22,230.94,269.54,228.47,274.85,231.54z"/>
		</g>
		<g class="st463">
			<path class="st464" d="M445.99,174.29c0,15.55-12.61,28.19-28.19,28.19c-15.55,0-28.18-12.64-28.18-28.19
				c0-15.58,12.63-28.18,28.18-28.18C433.38,146.1,445.99,158.71,445.99,174.29z"/>
			<path class="st465" d="M441.59,174.59c0,13.12-10.64,23.79-23.79,23.79c-13.12,0-23.79-10.67-23.79-23.79
				c0-13.15,10.66-23.79,23.79-23.79C430.95,150.8,441.59,161.44,441.59,174.59z"/>
			<path class="st466" d="M437.19,174.89c0,10.7-8.67,19.39-19.39,19.39c-10.7,0-19.39-8.7-19.39-19.39
				c0-10.72,8.69-19.39,19.39-19.39C428.52,155.5,437.19,164.17,437.19,174.89z"/>
			<path class="st467" d="M432.79,175.19c0,8.27-6.7,15-14.99,15c-8.27,0-14.99-6.73-14.99-15c0-8.29,6.72-14.99,14.99-14.99
				C426.09,160.2,432.79,166.9,432.79,175.19z"/>
			<path class="st468" d="M428.39,175.48c0,5.84-4.74,10.6-10.59,10.6c-5.84,0-10.6-4.76-10.6-10.6c0-5.85,4.75-10.59,10.6-10.59
				C423.66,164.89,428.39,169.63,428.39,175.48z"/>
			<path class="st469" d="M423.99,175.78c0,3.42-2.77,6.2-6.19,6.2c-3.42,0-6.2-2.78-6.2-6.2c0-3.42,2.78-6.19,6.2-6.19
				C421.23,169.59,423.99,172.36,423.99,175.78z"/>
			<path class="st470" d="M419.59,176.08c0,0.99-0.8,1.81-1.8,1.81c-0.99,0-1.8-0.81-1.8-1.81c0-0.99,0.81-1.79,1.8-1.79
				C418.8,174.29,419.59,175.09,419.59,176.08z"/>
		</g>
	</g>
</g>
</svg>
